<svg width="27" height="23" viewBox="0 0 27 23" fill="none" xmlns="http://www.w3.org/2000/svg">
<path d="M19.6825 4.47538C19.7527 4.40433 19.7948 4.30487 19.7948 4.20541C19.7948 4.10595 19.7527 4.00649 19.6825 3.93545C19.6123 3.8644 19.514 3.82178 19.4157 3.82178H15.9411C15.8428 3.82178 15.7445 3.8644 15.6743 3.93545C15.6041 4.00649 15.562 4.10595 15.562 4.20541C15.562 4.30487 15.6041 4.40433 15.6743 4.47538C15.7445 4.54642 15.8428 4.58905 15.9411 4.58905H19.4157C19.514 4.58905 19.6123 4.54642 19.6825 4.47538Z" fill="#EDF2F7"/>
<path d="M20.8063 4.58905H22.1962C22.2944 4.58905 22.3927 4.54642 22.4629 4.47538C22.5331 4.40433 22.5752 4.31198 22.5752 4.20541C22.5752 4.09885 22.5331 4.00649 22.4629 3.93545C22.3927 3.8644 22.2944 3.82178 22.1962 3.82178H20.8063C20.708 3.82178 20.6098 3.8644 20.5396 3.93545C20.4694 4.00649 20.4272 4.10595 20.4272 4.20541C20.4272 4.30487 20.4694 4.40433 20.5396 4.47538C20.6098 4.54642 20.708 4.58905 20.8063 4.58905Z" fill="#EDF2F7"/>
<path d="M22.196 5.59033H18.7213C18.6231 5.59033 18.5248 5.63296 18.4546 5.704C18.3844 5.77504 18.3423 5.87451 18.3423 5.97397C18.3423 6.07343 18.3844 6.17289 18.4546 6.24393C18.5248 6.31498 18.6231 6.3576 18.7213 6.3576H22.196C22.2943 6.3576 22.3926 6.31498 22.4628 6.24393C22.533 6.17289 22.5751 6.08053 22.5751 5.97397C22.5751 5.8674 22.533 5.77504 22.4628 5.704C22.3926 5.63296 22.2943 5.59033 22.196 5.59033Z" fill="#EDF2F7"/>
<path d="M20.3773 8.34696C20.4475 8.27592 20.4896 8.18356 20.4896 8.07699C20.4896 7.97043 20.4475 7.87807 20.3773 7.80703C20.3071 7.73599 20.2088 7.69336 20.1106 7.69336H16.6359C16.5376 7.69336 16.4393 7.73599 16.3691 7.80703C16.299 7.87807 16.2568 7.97753 16.2568 8.07699C16.2568 8.17646 16.299 8.27592 16.3691 8.34696C16.4393 8.418 16.5376 8.46063 16.6359 8.46063H20.1106C20.2088 8.46063 20.3071 8.418 20.3773 8.34696Z" fill="#EDF2F7"/>
<path d="M22.1956 7.69336H21.5006C21.4024 7.69336 21.3041 7.73599 21.2339 7.80703C21.1637 7.87807 21.1216 7.97753 21.1216 8.07699C21.1216 8.17646 21.1637 8.27592 21.2339 8.34696C21.3041 8.418 21.4024 8.46063 21.5006 8.46063H22.1956C22.2938 8.46063 22.3921 8.418 22.4623 8.34696C22.5325 8.27592 22.5746 8.18356 22.5746 8.07699C22.5746 7.97043 22.5325 7.87807 22.4623 7.80703C22.3921 7.73599 22.2938 7.69336 22.1956 7.69336Z" fill="#EDF2F7"/>
<path d="M12.0313 19.891H14.8181C15.2533 19.891 15.6043 19.5358 15.6043 19.0953V14.4988C15.6043 14.0583 15.2533 13.7031 14.8181 13.7031H12.0313C11.5961 13.7031 11.2451 14.0583 11.2451 14.4988V19.0953C11.2451 19.5358 11.5961 19.891 12.0313 19.891ZM11.7997 14.4988C11.7997 14.3709 11.905 14.2644 12.0313 14.2644H14.8181C14.9444 14.2644 15.0497 14.3709 15.0497 14.4988V19.0953C15.0497 19.2232 14.9444 19.3298 14.8181 19.3298H12.0313C11.905 19.3298 11.7997 19.2232 11.7997 19.0953V14.4988Z" fill="#EDF2F7"/>
<path d="M25.5722 0.738852C25.0949 0.269965 24.4561 0.00710435 23.7893 0H10.5363C9.37812 0 8.45154 0.888044 8.26903 2.08868C7.7917 2.15262 7.32139 2.26629 6.87214 2.45811C5.84729 2.88437 4.97686 3.60901 4.35914 4.53968C3.74142 5.47035 3.41852 6.55732 3.41852 7.6798C3.41852 8.80229 3.71334 9.77559 4.26789 10.6636C4.19769 10.7134 4.1275 10.7631 4.07134 10.827L0.414154 14.5284C0.16145 14.7842 0.0140391 15.1394 0.00701955 15.5017H0V15.523C0 15.8001 0.0772151 16.07 0.231645 16.3045C0.386075 16.5389 0.596662 16.7165 0.856385 16.8231C1.02485 16.8941 1.20736 16.9297 1.38987 16.9297C1.48113 16.9297 1.57238 16.9226 1.65661 16.9012C1.93038 16.8444 2.16904 16.7165 2.36559 16.5176L6.01576 12.8162C6.09297 12.7452 6.14913 12.6528 6.19827 12.5605C6.82301 12.9299 7.51092 13.1715 8.22692 13.2709V20.1479C8.21288 20.4605 8.26903 20.7731 8.37433 21.0644C8.48664 21.3628 8.65511 21.6256 8.8657 21.853C9.0833 22.0803 9.33601 22.2579 9.62381 22.3787C9.90459 22.4995 10.2064 22.5563 10.5083 22.5563H17.5068C17.605 22.5563 17.6963 22.535 17.7875 22.4924C17.8788 22.4497 17.956 22.3929 18.0192 22.3219L25.9723 14.3224C25.9723 14.3224 26.0355 14.2513 26.0776 14.2087C26.197 14.0879 26.3303 13.9529 26.3303 13.8038V2.52204C26.3093 1.84713 26.0285 1.21484 25.5512 0.738852H25.5722ZM5.44015 12.0916V12.1058C5.44015 12.1058 5.40506 12.1555 5.384 12.1769L1.73383 15.8711C1.69171 15.9137 1.63556 15.9493 1.5794 15.9777C1.52324 15.999 1.46007 16.0132 1.39689 16.0132C1.33372 16.0132 1.27756 15.999 1.21438 15.9777C1.15823 15.9493 1.10207 15.9137 1.05995 15.8711C0.968698 15.7788 0.919561 15.658 0.919561 15.5301C0.919561 15.4022 0.968698 15.2815 1.05995 15.1891L4.71012 11.4948C4.71012 11.4948 4.74522 11.4593 4.76628 11.4451H4.80839C4.80839 11.4451 4.82945 11.4593 4.88561 11.4948C4.92071 11.5375 4.9558 11.573 4.9909 11.6156C4.84349 11.4877 4.79435 11.4735 4.79435 11.4735H4.78032C4.78032 11.4735 4.74522 11.4948 4.73118 11.509L1.07399 15.1962C0.989757 15.2815 0.94764 15.4022 0.94764 15.523C0.94764 15.6438 0.996777 15.7574 1.07399 15.8498C1.11611 15.8924 1.16525 15.928 1.2214 15.9493C1.27756 15.9706 1.33372 15.9848 1.39689 15.9848C1.45305 15.9848 1.51622 15.9706 1.57238 15.9493C1.62854 15.928 1.67767 15.8924 1.71979 15.8498L5.36996 12.1555C5.36996 12.1555 5.40506 12.12 5.41208 12.0987C5.41208 12.0987 5.41208 12.0419 5.29274 11.9069C5.32784 11.9424 5.36294 11.9779 5.40506 12.0064C5.44015 12.0632 5.44015 12.0916 5.44015 12.0987V12.0916ZM5.12427 11.7577C5.34188 11.9637 5.37698 12.0632 5.384 12.0845C5.37698 12.0987 5.36294 12.1129 5.3489 12.1271L1.69873 15.8214C1.65661 15.864 1.6145 15.8924 1.55834 15.9137C1.5092 15.9351 1.45305 15.9422 1.39689 15.9422C1.34073 15.9422 1.2916 15.9351 1.24246 15.9137C1.1863 15.8924 1.14419 15.8569 1.10207 15.8214C1.02485 15.7361 0.982737 15.6296 0.982737 15.5159C0.982737 15.4022 1.02485 15.2957 1.10207 15.2104L4.75224 11.5162C4.75224 11.5162 4.7733 11.4948 4.78734 11.4806C4.78734 11.4806 4.87157 11.509 5.12427 11.7506V11.7577ZM9.71506 20.5103C9.67996 20.3966 9.65891 20.2758 9.67295 20.1479V13.278C10.5364 13.1715 11.3647 12.8731 12.1017 12.3829C13.0283 11.7648 13.7373 10.8839 14.1655 9.84663C14.1725 9.82532 14.1795 9.804 14.1865 9.77559C14.1865 9.78979 14.1795 9.804 14.1795 9.82532C14.1795 9.92478 14.2216 10.0242 14.2918 10.0953C14.362 10.1663 14.4603 10.209 14.5586 10.209H16.9873C17.0856 10.209 17.1839 10.1663 17.2541 10.0953C17.3243 10.0242 17.3664 9.92478 17.3664 9.82532C17.3664 9.72586 17.3243 9.6264 17.2541 9.55535C17.1839 9.48431 17.0856 9.44168 16.9873 9.44168H14.5586C14.4603 9.44168 14.362 9.48431 14.2918 9.55535C14.2708 9.57666 14.2497 9.61219 14.2357 9.6406C14.376 9.24986 14.4813 8.85202 14.5305 8.44707H15.2465C15.3447 8.44707 15.443 8.40445 15.5132 8.3334C15.5834 8.26236 15.6255 8.1629 15.6255 8.06344C15.6255 7.96398 15.5834 7.86452 15.5132 7.79347C15.443 7.72243 15.3447 7.6798 15.2465 7.6798H14.5796C14.5796 7.31038 14.5586 6.94095 14.4884 6.57152C14.4673 6.47917 14.4462 6.39392 14.4252 6.30156C14.4673 6.31577 14.5094 6.32998 14.5515 6.32998H17.3313C17.4296 6.32998 17.5278 6.28735 17.598 6.21631C17.6682 6.14526 17.7103 6.0458 17.7103 5.94634C17.7103 5.84688 17.6682 5.74742 17.598 5.67638C17.5278 5.60533 17.4296 5.56271 17.3313 5.56271H14.5515C14.4533 5.56271 14.355 5.60533 14.2848 5.67638C14.2708 5.69058 14.2567 5.7119 14.2497 5.73321C14.0953 5.32116 13.9057 4.93042 13.6671 4.5681H14.5515C14.6498 4.5681 14.7481 4.52547 14.8183 4.45443C14.8885 4.38338 14.9306 4.29103 14.9306 4.18446C14.9306 4.0779 14.8885 3.98554 14.8183 3.9145C14.7481 3.84345 14.6498 3.80083 14.5515 3.80083H13.0844C13.0423 3.7582 13.0072 3.70137 12.9651 3.65874C12.1789 2.86305 11.1892 2.33023 10.1011 2.10999C9.9818 2.08868 9.86247 2.08157 9.73612 2.06737C9.84843 1.71925 10.1082 1.44218 10.5293 1.44218H23.7822C24.063 1.45639 24.3298 1.57006 24.5333 1.76188C24.7369 1.9537 24.8703 2.21656 24.8984 2.50073V13.3491H19.2336C17.9981 13.3491 17.2541 14.4645 17.2541 15.5372V21.0431L17.2119 21.0786H10.5223C10.403 21.0786 10.2907 21.0573 10.1854 21.0076C10.0801 20.9578 9.97478 20.8868 9.89757 20.8015C9.81334 20.7092 9.75718 20.6097 9.71506 20.496V20.5103ZM4.73118 9.46299C4.3802 8.60337 4.28895 7.6727 4.47146 6.76334C4.65396 5.85398 5.08918 5.02988 5.73497 4.36918C6.38077 3.71558 7.20206 3.27511 8.10056 3.09039C8.14268 3.08329 8.19182 3.07618 8.24096 3.06908H8.29711C8.53578 3.02645 8.76742 2.99804 9.00609 2.99804C9.21667 2.99804 9.42024 3.01935 9.63083 3.04777H9.68698C10.059 3.11171 10.424 3.21117 10.775 3.35325C11.0839 3.48113 11.3717 3.65874 11.6454 3.85056L11.6735 3.87187L11.7016 3.89318C11.9543 4.0779 12.2 4.28392 12.4176 4.52547C12.4246 4.53258 12.4316 4.54678 12.4386 4.55389C12.4457 4.56099 12.4527 4.5752 12.4597 4.58231C12.5931 4.7386 12.7265 4.902 12.8388 5.07961C12.9441 5.24301 13.0353 5.41352 13.1195 5.58402C13.1195 5.59112 13.1336 5.60533 13.1336 5.61244C13.1336 5.61954 13.1476 5.63375 13.1476 5.64085C13.2389 5.82557 13.3091 6.01738 13.3722 6.2092C13.3722 6.21631 13.3793 6.22341 13.3793 6.23762C13.3793 6.24472 13.3863 6.25183 13.3863 6.26604C13.5267 6.72072 13.6039 7.19671 13.6039 7.6798V7.69401C13.6039 7.69401 13.6039 7.71532 13.6039 7.72243V7.75085C13.6039 7.97108 13.5758 8.18421 13.5477 8.39734V8.45418C13.4846 8.80229 13.3863 9.1433 13.2529 9.4701C13.2529 9.4772 13.2459 9.48431 13.2389 9.49852C13.2389 9.50562 13.2319 9.51272 13.2248 9.52693C13.1336 9.74717 13.0213 9.9603 12.8949 10.1592C12.8949 10.1663 12.8809 10.1805 12.8809 10.1876C12.8809 10.1947 12.8668 10.209 12.8668 10.2161C12.6914 10.486 12.4878 10.7418 12.2561 10.9762C11.5472 11.6938 10.6487 12.1413 9.67996 12.2905H9.62381C9.42024 12.326 9.20965 12.3474 8.99907 12.3474C8.7604 12.3474 8.52876 12.326 8.29009 12.2905C8.28307 12.2905 8.26903 12.2905 8.26201 12.2905C8.255 12.2905 8.24096 12.2905 8.23394 12.2905C7.59516 12.184 6.97744 11.9424 6.42991 11.573C5.66478 11.0544 5.08216 10.3297 4.73118 9.4772V9.46299ZM18.0122 20.3184V15.5514C18.0122 14.8623 18.4404 14.1234 19.2406 14.1234H24.2877L18.0122 20.3184Z" fill="#EDF2F7"/>
<path d="M7.52526 9.09378C7.74286 8.95169 7.98153 8.85223 8.22721 8.78119H8.25529C8.25529 8.78119 8.27635 8.76698 8.28337 8.76698C8.71858 8.65331 9.17485 8.64621 9.61709 8.74567H9.64516L9.67324 8.75988C9.96104 8.83092 10.2418 8.93749 10.4945 9.10089C10.9438 9.38506 11.3018 9.79001 11.5404 10.2731L11.7651 10.1594L11.8142 10.131L12.0388 10.0173C11.758 9.4419 11.3228 8.9588 10.7894 8.61779C10.5858 8.48991 10.3682 8.39045 10.1436 8.3123C10.677 7.94288 11.028 7.3248 11.028 6.62147C11.028 5.73342 10.4594 4.98036 9.67324 4.70329C9.66622 4.70329 9.65218 4.70329 9.64516 4.69619H9.61709C9.42054 4.62515 9.22399 4.58252 9.00638 4.58252C8.75368 4.58252 8.508 4.63225 8.28337 4.72461C8.27635 4.72461 8.26231 4.72461 8.25529 4.73171C8.24827 4.73171 8.23423 4.73171 8.22721 4.73882C7.5042 5.0443 6.99177 5.77605 6.99177 6.62147C6.99177 7.3248 7.34275 7.94288 7.87624 8.3123C7.65161 8.39045 7.434 8.48991 7.23044 8.61779C6.69695 8.9588 6.26174 9.4419 5.98096 10.0173L6.20558 10.131L6.23366 10.1452L6.26174 10.1594L6.48636 10.2731C6.72503 9.79001 7.09005 9.38506 7.53228 9.10089L7.52526 9.09378ZM7.54632 6.62147C7.54632 6.09575 7.82008 5.64107 8.22721 5.37821C8.23423 5.37821 8.24827 5.3711 8.25529 5.364C8.26231 5.364 8.27635 5.35689 8.28337 5.34979C8.49396 5.22191 8.73964 5.15087 9.00638 5.15087C9.22399 5.15087 9.42756 5.2006 9.61709 5.28585C9.62411 5.28585 9.63814 5.29295 9.64516 5.30006C9.65218 5.30006 9.66622 5.30716 9.67324 5.31427C10.1436 5.56292 10.4665 6.05312 10.4665 6.62147C10.4665 7.18982 10.1436 7.68712 9.67324 7.92867C9.66622 7.92867 9.65218 7.93577 9.64516 7.94288C9.63814 7.94288 9.62411 7.95709 9.61709 7.95709C9.43458 8.04234 9.22399 8.09207 9.00638 8.09207C8.73964 8.09207 8.49396 8.01392 8.28337 7.89315C8.27635 7.89315 8.26231 7.88604 8.25529 7.87894C8.24827 7.87894 8.23423 7.87183 8.22721 7.86473C7.82008 7.60187 7.54632 7.14719 7.54632 6.62147Z" fill="#EDF2F7"/>
</svg>
