<svg width="162" height="42" viewBox="0 0 162 42" fill="none" xmlns="http://www.w3.org/2000/svg">
<g clip-path="url(#clip0_297_116435)">
<path fill-rule="evenodd" clip-rule="evenodd" d="M60.0441 9.72137C60.0441 6.83392 60.0589 3.94648 60.0293 1.05162C60.0293 0.451922 60.1181 0.200195 60.8215 0.200195C66.0781 0.22981 71.3422 0.200195 76.5988 0.222406C79.6491 0.22981 81.9739 2.11776 82.9512 5.31616C83.8174 8.15919 82.9142 11.4687 80.8559 13.2085C80.2044 13.7638 79.5529 13.8823 78.7089 13.8378C73.6891 13.5565 68.936 14.5486 64.5308 17.0436C63.2795 17.7544 61.9987 18.4133 60.6956 19.013C60.1181 19.2796 60.0293 19.1167 60.0367 18.554C60.0589 15.6073 60.0441 12.6681 60.0441 9.72137ZM70.8757 11.3502V11.328C71.7716 11.328 72.6748 11.3798 73.5707 11.3132C74.9108 11.2243 75.5327 10.4766 75.5105 9.10686C75.4883 7.7742 74.7997 6.96719 73.5115 6.92277C71.8234 6.87094 70.1354 6.92277 68.4473 6.90056C68.0993 6.90056 67.9587 7.01161 67.9587 7.36699C67.9661 8.53678 67.9735 9.70657 67.9587 10.8764C67.9587 11.2317 68.0771 11.3576 68.4251 11.3502C69.2395 11.3354 70.0613 11.3502 70.8757 11.3502Z" fill="white"/>
<path fill-rule="evenodd" clip-rule="evenodd" d="M52.7441 20.4566C51.0782 20.5011 49.4346 20.3678 47.8058 20.0198C47.1987 19.894 47.1765 19.7829 47.4726 19.2646C48.9016 16.74 49.0941 14.0598 48.1464 11.3427C47.1395 8.46261 44.5704 6.8486 41.5571 7.07071C38.6696 7.28542 36.3893 9.39548 35.7822 12.4088C35.6341 13.1344 35.523 13.8599 35.5675 14.5929C35.6045 15.2074 35.3454 15.1926 34.9085 15.0519C33.0354 14.4226 31.0882 14.2523 29.1336 14.1413C28.9708 14.1339 28.8079 14.1413 28.645 14.1413C27.8503 14.1659 27.4949 13.7859 27.5789 13.0011C28.2526 6.6561 33.2723 1.36245 39.6173 0.303716C47.7984 -1.05857 55.1133 4.15365 56.5348 12.394C56.9642 14.9038 56.6829 17.3693 55.787 19.7607C55.6093 20.2419 55.3798 20.4788 54.8615 20.464C54.1508 20.4418 53.4474 20.464 52.7367 20.464L52.7441 20.4566Z" fill="white"/>
<path fill-rule="evenodd" clip-rule="evenodd" d="M101.69 19.5012C99.306 19.6863 97.0479 18.4647 94.6787 17.7762C92.8574 17.2505 91.1249 16.4731 89.6368 15.2293C88.119 13.9633 87.4379 12.3122 87.3268 10.3947C86.9418 3.84238 91.6654 0.718014 96.1372 0.125716C99.8095 -0.355525 103.171 0.629169 106.473 1.99886C107.124 2.26539 107.731 2.62077 108.383 2.8799C108.783 3.04278 108.761 3.22787 108.59 3.53883C107.606 5.40457 106.613 7.2629 105.658 9.15085C105.421 9.61728 105.222 9.54324 104.859 9.33594C103.112 8.34384 101.268 7.57385 99.2986 7.14444C98.4694 6.95935 97.618 6.95194 96.7888 7.08521C96.2187 7.18146 95.6708 7.41838 95.5227 8.0699C95.3821 8.72143 95.6338 9.23969 96.1891 9.60988C96.9664 10.1281 97.8549 10.3725 98.7359 10.6316C100.646 11.2017 102.564 11.7644 104.385 12.601C106.658 13.6449 108.501 15.1034 109.197 17.6651C109.368 18.287 109.264 18.5388 108.583 18.709C106.377 19.2421 104.141 19.4642 101.675 19.5012H101.69Z" fill="white"/>
<path fill-rule="evenodd" clip-rule="evenodd" d="M9.48417 19.5683C6.63374 19.9459 3.90917 19.7164 1.19201 19.2943C0.873648 19.2425 0.769996 19.0574 0.688555 18.7613C-0.821803 13.5268 0.118469 8.79587 3.78331 4.75344C6.99652 1.19966 11.1056 -0.19224 15.8662 0.12612C19.8049 0.38525 23.1292 1.79936 25.6021 4.95334C26.6164 6.24899 26.609 6.2564 25.2541 7.21148C23.6623 8.34424 22.0705 9.48442 20.4713 10.6246C19.1608 7.58166 16.2734 6.8635 13.8227 7.09302C11.0241 7.35955 8.98812 9.34375 8.29958 12.3052C7.70728 14.8447 8.04045 17.2509 9.49157 19.5609L9.48417 19.5683Z" fill="white"/>
<path fill-rule="evenodd" clip-rule="evenodd" d="M112.995 16.9688V15.1845C112.995 10.4684 113.003 5.75218 112.98 1.02861C112.98 0.414105 113.099 0.191993 113.773 0.199397C119.933 0.229012 126.1 0.229012 132.26 0.199397C132.941 0.199397 133.141 0.38449 133.119 1.06563C133.074 2.78329 133.067 4.50096 133.119 6.21862C133.133 6.88495 132.97 7.09226 132.275 7.08485C128.728 7.04783 125.182 7.08485 121.635 7.05524C121.036 7.05524 120.821 7.1737 120.865 7.81042C120.925 8.70627 120.917 9.60952 120.865 10.5128C120.836 11.031 121.013 11.1421 121.502 11.1347C124.501 11.1125 127.499 11.1421 130.505 11.1051C131.157 11.1051 131.371 11.2754 131.305 11.9195C131.253 12.46 131.297 13.0078 131.29 13.5557C131.29 14.5626 131.29 14.5404 130.276 14.3701C127.936 13.9851 125.582 13.8593 123.205 14.0221C120.088 14.2294 117.186 15.1253 114.38 16.4357C113.987 16.6208 113.595 16.7985 113.195 16.9762C113.151 16.991 113.092 16.9762 112.98 16.9688H112.995Z" fill="white"/>
<path fill-rule="evenodd" clip-rule="evenodd" d="M68.3955 17.4946C71.4681 16.0805 74.6961 15.6659 77.9907 15.7252C79.4123 15.7474 80.8116 15.9473 82.2109 16.199C82.6551 16.2804 82.9364 16.4803 83.1956 16.8357C86.1571 20.8485 84.4616 26.4161 79.7232 28.1412C78.2055 28.6965 76.6285 28.9778 75.0145 28.9778C70.3205 28.9778 65.6339 28.9556 60.94 29C60.1182 29.0074 59.9479 28.7631 59.9701 27.9931C60.0219 26.0311 60.0071 24.0691 59.9775 22.0998C59.9701 21.5741 60.0812 21.2928 60.6364 21.0929C62.9316 20.271 64.9824 18.9458 67.1591 17.887C67.7267 17.6106 68.0105 17.7809 68.0105 18.3979C68.0105 19.464 68.0402 20.5302 68.0031 21.5889C67.9809 22.1442 68.1882 22.27 68.7065 22.27C70.5648 22.2404 72.4158 22.27 74.2741 22.2552C75.5919 22.2478 76.51 21.2631 76.4878 19.9379C76.4582 18.5386 75.5549 17.5391 74.2593 17.5243C72.4306 17.502 70.6018 17.5243 68.7731 17.5243C68.6473 17.5243 68.5214 17.5095 68.3881 17.502L68.3955 17.4946Z" fill="white"/>
<path fill-rule="evenodd" clip-rule="evenodd" d="M148.215 0.207929C149.222 0.207929 150.236 0.237544 151.243 0.193121C151.688 0.178314 151.865 0.363407 151.991 0.740996C153.998 6.54551 156.004 12.3574 158.04 18.1545C158.358 19.0652 157.648 18.9023 157.27 18.9763C151.221 20.1906 145.335 19.6871 139.612 17.3253C138.924 17.044 138.761 16.8293 139.02 16.0963C140.804 11.0692 142.551 6.02725 144.276 0.985319C144.491 0.363407 144.78 0.148699 145.431 0.193121C146.357 0.252351 147.282 0.207929 148.208 0.207929H148.215ZM148.178 9.23306C147.312 12.1279 146.527 14.8007 145.705 17.4734C145.572 17.9102 145.602 18.0583 146.09 18.0583C147.453 18.0361 148.815 18.0361 150.17 18.0583C150.666 18.0657 150.673 17.925 150.54 17.4882C150.014 15.7928 149.548 14.0825 149.059 12.3722C148.778 11.3949 148.504 10.4177 148.178 9.24046V9.23306Z" fill="white"/>
<path fill-rule="evenodd" clip-rule="evenodd" d="M123.183 28.9781C120.022 28.9781 116.86 28.9633 113.699 28.9929C113.04 28.9929 112.877 28.793 112.884 28.1637C112.914 25.4095 112.899 22.6553 112.899 19.9085C112.899 19.5976 112.833 19.2866 113.247 19.0941C115.957 17.8873 118.615 16.5695 121.606 16.14C124.686 15.7032 127.744 15.8513 130.794 16.3992C131.209 16.4732 131.386 16.6435 131.372 17.0951C131.357 17.6282 131.009 17.5468 130.698 17.5468C127.699 17.5468 124.701 17.5616 121.702 17.5394C121.073 17.5394 120.836 17.6874 120.873 18.3538C120.932 19.3014 120.932 20.2639 120.873 21.2116C120.836 21.8853 121.036 22.0926 121.724 22.0852C125.323 22.0482 128.921 22.0926 132.519 22.0482C133.311 22.0408 133.541 22.2481 133.504 23.0403C133.445 24.6987 133.437 26.3646 133.504 28.0304C133.541 28.8596 133.259 29.0077 132.497 29.0003C129.387 28.9559 126.285 28.9781 123.176 28.9781H123.183Z" fill="white"/>
<path fill-rule="evenodd" clip-rule="evenodd" d="M54.447 22.5073C52.1296 25.9723 49.0422 28.2008 45.0738 28.9486C36.8927 30.4811 29.8148 25.8094 27.8454 17.7393C27.4308 16.0291 27.4604 15.9847 29.2447 16.0661C31.3251 16.1623 33.3538 16.4955 35.3306 17.1841C35.7674 17.3395 36.0413 17.5468 36.219 18.0207C37.6627 21.8632 41.483 22.9664 44.8517 21.6115C45.1331 21.5004 45.3848 21.3672 45.7032 21.4708C48.4425 22.3 51.256 22.5443 54.1064 22.4407C54.1804 22.4407 54.2545 22.4703 54.4544 22.5147L54.447 22.5073Z" fill="white"/>
<path fill-rule="evenodd" clip-rule="evenodd" d="M98.3435 29.3481C94.1975 29.2888 90.3031 28.2449 86.616 26.3644C86.157 26.1274 85.9941 25.9349 86.2755 25.3871C87.2602 23.4843 88.193 21.5519 89.1037 19.6048C89.3776 19.0199 89.6442 19.1013 90.081 19.3604C92.1762 20.5969 94.3825 21.5519 96.7887 22.0036C97.7068 22.1738 98.7359 22.3886 99.5355 22.048C102.268 20.9004 105.222 21.6186 107.983 20.8338C109.708 20.3451 109.738 20.4414 109.36 22.2479C108.538 26.1348 105.91 28.1116 102.23 28.9705C100.95 29.2666 99.654 29.3703 98.3361 29.3332L98.3435 29.3481Z" fill="white"/>
<path fill-rule="evenodd" clip-rule="evenodd" d="M1.93236 21.4038C4.97528 21.7073 8.01821 21.8554 11.0463 21.3075C11.3499 21.2483 11.572 21.389 11.8089 21.5148C14.341 22.8549 18.7906 22.1441 20.1233 19.0272C20.2862 18.6496 20.449 18.7088 20.723 18.8717C22.6109 20.0119 24.4915 21.152 26.3942 22.2552C26.8681 22.5291 26.72 22.7883 26.5571 23.1066C25.6391 24.8835 24.2249 26.1866 22.5073 27.1342C16.414 30.4881 9.27684 30.0365 4.29414 24.9131C3.30945 23.9062 2.39879 22.8179 1.86572 21.4778C1.88793 21.4556 1.91755 21.426 1.93976 21.4038H1.93236Z" fill="white"/>
<path fill-rule="evenodd" clip-rule="evenodd" d="M161.712 28.9778C159.135 28.9778 156.581 28.9778 154.027 28.9778C153.583 28.9778 153.575 28.6372 153.494 28.3855C153.035 26.9418 152.576 25.4907 152.169 24.0321C152.035 23.5435 151.813 23.3954 151.325 23.4028C149.222 23.425 147.127 23.4324 145.031 23.4028C144.543 23.4028 144.313 23.5509 144.18 24.0247C143.765 25.4833 143.284 26.927 142.884 28.3855C142.758 28.8445 142.551 28.9852 142.092 28.9852C139.804 28.9704 137.517 28.9704 135.221 28.9852C134.681 28.9852 134.57 28.8519 134.762 28.3263C135.799 25.4166 136.821 22.4996 137.798 19.5677C138.013 18.931 138.227 18.7977 138.872 19.0642C141.5 20.1452 144.202 20.9596 147.038 21.2927C150.836 21.737 154.597 21.5223 158.328 20.7375C158.691 20.6634 158.921 20.619 159.069 21.0706C159.928 23.6101 160.809 26.1422 161.682 28.6817C161.705 28.7557 161.697 28.8371 161.712 28.9852V28.9778Z" fill="white"/>
<path d="M2.67273 39.7582C2.67273 38.4995 3.64262 37.5889 4.94567 37.5889C5.6046 37.5889 6.18209 37.811 6.57449 38.2478L6.17469 38.6328C5.84152 38.2848 5.44172 38.1293 4.96788 38.1293C3.99799 38.1293 3.28724 38.8253 3.28724 39.7582C3.28724 40.691 4.0054 41.387 4.96788 41.387C5.44172 41.387 5.84152 41.2241 6.17469 40.8761L6.57449 41.2611C6.18209 41.6979 5.6046 41.9274 4.93827 41.9274C3.64262 41.9274 2.67273 41.0094 2.67273 39.7582Z" fill="white"/>
<path d="M7.00391 39.7582C7.00391 38.5143 7.97379 37.5889 9.28425 37.5889C10.5947 37.5889 11.5572 38.5143 11.5572 39.7582C11.5572 41.002 10.5873 41.9274 9.28425 41.9274C7.9812 41.9274 7.00391 41.002 7.00391 39.7582ZM10.9501 39.7582C10.9501 38.8179 10.2393 38.1293 9.29165 38.1293C8.34398 38.1293 7.61841 38.8253 7.61841 39.7582C7.61841 40.691 8.32917 41.387 9.29165 41.387C10.2541 41.387 10.9501 40.6984 10.9501 39.7582Z" fill="white"/>
<path d="M12.1495 39.7582C12.1495 38.5143 13.1194 37.5889 14.4372 37.5889C15.7551 37.5889 16.7102 38.5143 16.7102 39.7582C16.7102 41.002 15.7403 41.9274 14.4372 41.9274C13.1342 41.9274 12.1495 41.002 12.1495 39.7582ZM16.0957 39.7582C16.0957 38.8179 15.3849 38.1293 14.4372 38.1293C13.4895 38.1293 12.764 38.8253 12.764 39.7582C12.764 40.691 13.4747 41.387 14.4372 41.387C15.3997 41.387 16.0957 40.6984 16.0957 39.7582Z" fill="white"/>
<path d="M20.5083 41.883L19.5828 40.5799C19.494 40.5799 19.4052 40.5947 19.3163 40.5947H18.2576V41.883H17.6431V37.6406H19.3163C20.4343 37.6406 21.108 38.1959 21.108 39.1214C21.108 39.7729 20.7674 40.2541 20.1677 40.4614L21.182 41.8904H20.5157L20.5083 41.883ZM20.4935 39.114C20.4935 38.5069 20.0863 38.1589 19.3015 38.1589H18.2576V40.069H19.3015C20.0863 40.069 20.4935 39.7211 20.4935 39.114Z" fill="white"/>
<path d="M22.0927 37.6328H23.8992C25.2762 37.6328 26.2165 38.4916 26.2165 39.7577C26.2165 41.0237 25.2762 41.8825 23.8992 41.8825H22.0927V37.6402V37.6328ZM23.8621 41.3495C24.9209 41.3495 25.602 40.7054 25.602 39.7577C25.602 38.81 24.9209 38.1659 23.8621 38.1659H22.7072V41.3569H23.8621V41.3495Z" fill="white"/>
<path d="M27.1494 37.6328H27.7639V41.8751H27.1494V37.6328Z" fill="white"/>
<path d="M32.7318 37.6328V41.8751H32.2283L29.6592 38.7063V41.8751H29.0447V37.6328H29.5482L32.1173 40.8016V37.6328H32.7318Z" fill="white"/>
<path d="M36.752 40.8164H34.4717L33.9978 41.8751H33.3685L35.3083 37.6328H35.9154L37.8626 41.8751H37.2185L36.7446 40.8164H36.752ZM36.5373 40.3278L35.6119 38.2473L34.6864 40.3278H36.5373Z" fill="white"/>
<path d="M39.136 38.1585H37.6701V37.6328H41.2165V38.1585H39.7505V41.8751H39.1434V38.1585H39.136Z" fill="white"/>
<path d="M41.8828 37.6328H42.4973V41.8751H41.8828V37.6328Z" fill="white"/>
<path d="M47.4652 37.6328V41.8751H46.9617L44.3926 38.7063V41.8751H43.7781V37.6328H44.2816L46.8507 40.8016V37.6328H47.4652Z" fill="white"/>
<path d="M51.7223 39.7354H52.3072V41.3938C51.8778 41.7492 51.2855 41.9343 50.6858 41.9343C49.368 41.9343 48.3981 41.0162 48.3981 39.765C48.3981 38.5138 49.368 37.5957 50.6932 37.5957C51.3744 37.5957 51.9519 37.8178 52.3368 38.2472L51.9593 38.6248C51.6039 38.2842 51.1967 38.1362 50.7154 38.1362C49.7233 38.1362 49.0052 38.8247 49.0052 39.765C49.0052 40.7053 49.7233 41.3938 50.708 41.3938C51.0708 41.3938 51.404 41.3124 51.7149 41.1199V39.7354H51.7223Z" fill="white"/>
<path d="M58.8077 40.7354C58.8077 41.4609 58.2524 41.883 57.1641 41.883H55.1207V37.6406H57.0456C58.0303 37.6406 58.5856 38.0552 58.5856 38.7364C58.5856 39.1954 58.3487 39.5212 58.0081 39.684C58.4894 39.8173 58.8077 40.1727 58.8077 40.7428V40.7354ZM55.7352 38.1293V39.4916H56.9938C57.6157 39.4916 57.9711 39.262 57.9711 38.8104C57.9711 38.3588 57.6157 38.1293 56.9938 38.1293H55.7352ZM58.1932 40.691C58.1932 40.2023 57.823 39.9802 57.1493 39.9802H55.7426V41.3943H57.1493C57.8304 41.3943 58.1932 41.1796 58.1932 40.691Z" fill="white"/>
<path d="M59.4074 39.7582C59.4074 38.5143 60.3773 37.5889 61.6878 37.5889C62.9982 37.5889 63.9607 38.5143 63.9607 39.7582C63.9607 41.002 62.9908 41.9274 61.6878 41.9274C60.3847 41.9274 59.4074 41.002 59.4074 39.7582ZM63.3536 39.7582C63.3536 38.8179 62.6428 38.1293 61.6952 38.1293C60.7475 38.1293 60.0219 38.8253 60.0219 39.7582C60.0219 40.691 60.7327 41.387 61.6952 41.387C62.6576 41.387 63.3536 40.6984 63.3536 39.7582Z" fill="white"/>
<path d="M64.9009 37.6328H66.7074C68.0845 37.6328 69.0248 38.4916 69.0248 39.7577C69.0248 41.0237 68.0845 41.8825 66.7074 41.8825H64.9009V37.6402V37.6328ZM66.6704 41.3495C67.7292 41.3495 68.4103 40.7054 68.4103 39.7577C68.4103 38.81 67.7292 38.1659 66.6704 38.1659H65.5154V41.3569H66.6704V41.3495Z" fill="white"/>
<path d="M71.4162 40.4088V41.8747H70.8091V40.394L69.1063 37.625H69.7652L71.1349 39.8609L72.512 37.625H73.1191L71.4162 40.4014V40.4088Z" fill="white"/>
<path d="M75.0292 39.7582C75.0292 38.5143 75.9991 37.5889 77.3096 37.5889C78.62 37.5889 79.5825 38.5143 79.5825 39.7582C79.5825 41.002 78.6126 41.9274 77.3096 41.9274C76.0065 41.9274 75.0292 41.002 75.0292 39.7582ZM78.9754 39.7582C78.9754 38.8179 78.2647 38.1293 77.317 38.1293C76.3693 38.1293 75.6437 38.8253 75.6437 39.7582C75.6437 40.691 76.3545 41.387 77.317 41.387C78.2795 41.387 78.9754 40.6984 78.9754 39.7582Z" fill="white"/>
<path d="M84.2099 37.6328V41.8751H83.7064L81.1373 38.7063V41.8751H80.5228V37.6328H81.0263L83.5954 40.8016V37.6328H84.2099Z" fill="white"/>
<path d="M87.9932 38.1585H86.5272V37.6328H90.0736V38.1585H88.6077V41.8751H88.0006V38.1585H87.9932Z" fill="white"/>
<path d="M94.427 37.6328V41.8751H93.8125V39.9798H91.347V41.8751H90.7325V37.6328H91.347V39.4541H93.8125V37.6328H94.427Z" fill="white"/>
<path d="M98.8174 41.3495V41.8751H95.7078V37.6328H98.7359V38.1585H96.3223V39.4615H98.4694V39.9798H96.3223V41.3495H98.8174Z" fill="white"/>
<path d="M101.068 41.394L101.298 40.9201C101.616 41.2089 102.164 41.4088 102.712 41.4088C103.452 41.4088 103.77 41.1274 103.77 40.7572C103.77 39.7207 101.172 40.3723 101.172 38.7953C101.172 38.1437 101.69 37.5811 102.815 37.5811C103.319 37.5811 103.837 37.7143 104.192 37.9586L103.993 38.4473C103.622 38.2104 103.193 38.0993 102.815 38.0993C102.09 38.0993 101.771 38.4029 101.771 38.7731C101.771 39.8096 104.37 39.1655 104.37 40.7202C104.37 41.3718 103.845 41.927 102.712 41.927C102.06 41.927 101.416 41.7123 101.068 41.394Z" fill="white"/>
<path d="M108.368 41.3495V41.8751H105.259V37.6328H108.287V38.1585H105.873V39.4615H108.02V39.9798H105.873V41.3495H108.368Z" fill="white"/>
<path d="M112.092 40.8164H109.812L109.338 41.8751H108.709L110.649 37.6328H111.256L113.203 41.8751H112.559L112.085 40.8164H112.092ZM111.878 40.3278L110.952 38.2473L110.027 40.3278H111.878Z" fill="white"/>
<path d="M113.455 41.394L113.684 40.9201C114.002 41.2089 114.55 41.4088 115.098 41.4088C115.839 41.4088 116.157 41.1274 116.157 40.7572C116.157 39.7207 113.558 40.3723 113.558 38.7953C113.558 38.1437 114.076 37.5811 115.202 37.5811C115.705 37.5811 116.224 37.7143 116.579 37.9586L116.379 38.4473C116.009 38.2104 115.579 38.0993 115.202 38.0993C114.476 38.0993 114.158 38.4029 114.158 38.7731C114.158 39.8096 116.757 39.1655 116.757 40.7202C116.757 41.3718 116.231 41.927 115.098 41.927C114.447 41.927 113.803 41.7123 113.455 41.394Z" fill="white"/>
<path d="M118.948 39.7582C118.948 38.5143 119.918 37.5889 121.228 37.5889C122.539 37.5889 123.501 38.5143 123.501 39.7582C123.501 41.002 122.532 41.9274 121.228 41.9274C119.925 41.9274 118.948 41.002 118.948 39.7582ZM122.894 39.7582C122.894 38.8179 122.184 38.1293 121.236 38.1293C120.288 38.1293 119.563 38.8253 119.563 39.7582C119.563 40.691 120.273 41.387 121.236 41.387C122.198 41.387 122.894 40.6984 122.894 39.7582Z" fill="white"/>
<path d="M125.049 38.1589V39.6396H127.196V40.1653H125.049V41.883H124.434V37.6406H127.462V38.1663H125.049V38.1589Z" fill="white"/>
<path d="M133.082 41.3495V41.8751H129.972V37.6328H133V38.1585H130.587V39.4615H132.734V39.9798H130.587V41.3495H133.082Z" fill="white"/>
<path d="M136.806 40.8164H134.526L134.052 41.8751H133.422L135.362 37.6328H135.969L137.916 41.8751H137.272L136.798 40.8164H136.806ZM136.591 40.3278L135.666 38.2473L134.74 40.3278H136.591Z" fill="white"/>
<path d="M138.161 41.394L138.39 40.9201C138.709 41.2089 139.257 41.4088 139.804 41.4088C140.545 41.4088 140.863 41.1274 140.863 40.7572C140.863 39.7207 138.264 40.3723 138.264 38.7953C138.264 38.1437 138.783 37.5811 139.908 37.5811C140.411 37.5811 140.93 37.7143 141.285 37.9586L141.085 38.4473C140.715 38.2104 140.286 38.0993 139.908 38.0993C139.182 38.0993 138.864 38.4029 138.864 38.7731C138.864 39.8096 141.463 39.1655 141.463 40.7202C141.463 41.3718 140.937 41.927 139.804 41.927C139.153 41.927 138.509 41.7123 138.161 41.394Z" fill="white"/>
<path d="M143.151 38.1585H141.685V37.6328H145.231V38.1585H143.765V41.8751H143.158V38.1585H143.151Z" fill="white"/>
<path d="M150.266 40.8164H147.985L147.512 41.8751H146.882L148.822 37.6328H149.429L151.376 41.8751H150.732L150.258 40.8164H150.266ZM150.051 40.3278L149.126 38.2473L148.2 40.3278H150.051Z" fill="white"/>
<path d="M151.628 41.394L151.858 40.9201C152.176 41.2089 152.724 41.4088 153.272 41.4088C154.012 41.4088 154.33 41.1274 154.33 40.7572C154.33 39.7207 151.732 40.3723 151.732 38.7953C151.732 38.1437 152.25 37.5811 153.375 37.5811C153.879 37.5811 154.397 37.7143 154.752 37.9586L154.553 38.4473C154.182 38.2104 153.753 38.0993 153.375 38.0993C152.65 38.0993 152.331 38.4029 152.331 38.7731C152.331 39.8096 154.93 39.1655 154.93 40.7202C154.93 41.3718 154.405 41.927 153.272 41.927C152.62 41.927 151.976 41.7123 151.628 41.394Z" fill="white"/>
<path d="M155.819 37.6328H156.433V41.8751H155.819V37.6328Z" fill="white"/>
<path d="M160.453 40.8164H158.173L157.699 41.8751H157.07L159.01 37.6328H159.617L161.564 41.8751H160.92L160.446 40.8164H160.453ZM160.239 40.3278L159.313 38.2473L158.388 40.3278H160.239Z" fill="white"/>
</g>
<defs>
<clipPath id="clip0_297_116435">
<rect width="161.712" height="41.9272" fill="white"/>
</clipPath>
</defs>
</svg>
