<svg width="248" height="156" viewBox="0 0 248 156" fill="none" xmlns="http://www.w3.org/2000/svg">
<path d="M245.815 139.593H172.345L80.62 115.25L2.18555 139.593L22.6344 90.1269L87.9012 69.873L164.228 90.1269H225.36L245.815 139.593Z" fill="#789FA5"/>
<path d="M83.454 0.651855H68.7313C67.7924 0.651855 67.0312 1.41301 67.0312 2.35195V102.089C67.0312 103.028 67.7924 103.789 68.7313 103.789H83.454C84.3929 103.789 85.1541 103.028 85.1541 102.089V2.35195C85.1541 1.41301 84.3929 0.651855 83.454 0.651855Z" fill="#F0C8B6"/>
<path d="M85.1541 49.9395H67.0312V103.791H85.1541V49.9395Z" fill="#357079"/>
<path d="M85.1541 49.9395H67.0312V103.791H85.1541V49.9395Z" fill="#357079"/>
<path d="M115.152 28.636H100.43C99.4907 28.636 98.7295 29.3971 98.7295 30.3361V107.894H116.852V30.3361C116.852 29.3971 116.091 28.636 115.152 28.636Z" fill="#F0C8B6"/>
<path d="M116.852 86.3372H98.7295V107.895H116.852V86.3372Z" fill="#357079"/>
<path d="M147.301 21.5205H132.578C131.639 21.5205 130.878 22.2817 130.878 23.2206V115.071H149.001V23.2206C149.001 22.2817 148.24 21.5205 147.301 21.5205Z" fill="#F0C8B6"/>
<path d="M149.001 61.2177H130.878V115.07H149.001V61.2177Z" fill="#357079"/>
<path d="M179.457 1.17834H164.734C163.795 1.17834 163.034 1.9395 163.034 2.87844V122.603C163.034 123.542 163.795 124.303 164.734 124.303H179.457C180.396 124.303 181.157 123.542 181.157 122.603V2.87844C181.157 1.9395 180.396 1.17834 179.457 1.17834Z" fill="#F0C8B6"/>
<path d="M181.157 42.2484H163.034V124.301H181.157V42.2484Z" fill="#357079"/>
<path d="M245.815 154.348H172.345L80.62 130.144L2.18555 154.348L80.62 130.144L172.345 154.348H245.815Z" stroke="#357079" stroke-width="3" stroke-miterlimit="1.5" stroke-linecap="round" stroke-linejoin="round" stroke-dasharray="10.41 10.41"/>
</svg>
