<svg width="244" height="121" viewBox="0 0 244 121" fill="none" xmlns="http://www.w3.org/2000/svg">
<g opacity="0.5">
<rect x="180.688" y="42.3372" width="63.1464" height="78.2466" rx="12.8031" fill="#C0D3D5"/>
<path d="M237.531 65.6199C237.531 67.5204 236.472 67.9039 235.206 66.4768L228.838 60.7753C226.756 58.9107 223.605 58.9093 221.521 60.7719L215.147 66.4699C213.866 67.9005 212.821 67.5065 212.821 65.6164L212.821 51.5763C212.821 50.6598 213.193 49.7809 213.855 49.1329C214.517 48.4849 215.414 48.1208 216.35 48.1208H233.992C234.928 48.1208 235.825 48.4849 236.487 49.1329C237.148 49.7809 237.52 50.6598 237.52 51.5763L237.531 65.6199Z" fill="white"/>
<rect x="151.116" y="32.3104" width="63.1464" height="78.2466" rx="12.8031" fill="#A2BDC1"/>
<path fill-rule="evenodd" clip-rule="evenodd" d="M159.352 74.8717H204.652H159.352Z" fill="#FAFBFF"/>
<path d="M159.352 74.8717H204.652" stroke="#5D8D94" stroke-width="3.30261" stroke-miterlimit="1.5" stroke-linecap="round" stroke-linejoin="round"/>
<path fill-rule="evenodd" clip-rule="evenodd" d="M159.352 87.2235H204.652H159.352Z" fill="#FAFBFF"/>
<path d="M159.352 87.2235H204.652" stroke="#5D8D94" stroke-width="3.30261" stroke-miterlimit="1.5" stroke-linecap="round" stroke-linejoin="round"/>
<path fill-rule="evenodd" clip-rule="evenodd" d="M159.352 98.2003H188.179H159.352Z" fill="#FAFBFF"/>
<path d="M159.352 98.2003H188.179" stroke="#5D8D94" stroke-width="3.30261" stroke-miterlimit="1.5" stroke-linecap="round" stroke-linejoin="round"/>
<path d="M207.959 55.5931C207.959 57.4936 206.901 57.8772 205.634 56.4501L199.267 50.7485C197.185 48.884 194.034 48.8826 191.95 50.7452L185.575 56.4432C184.294 57.8737 183.25 57.4798 183.25 55.5897L183.25 41.5496C183.25 40.6331 183.622 39.7542 184.284 39.1062C184.945 38.4582 185.843 38.0941 186.778 38.0941H204.421C205.356 38.0941 206.254 38.4582 206.915 39.1062C207.577 39.7542 207.949 40.6331 207.949 41.5496L207.959 55.5931Z" fill="white"/>
<rect x="121.549" y="22.2925" width="63.1464" height="78.2466" rx="12.8031" fill="#357079"/>
<path fill-rule="evenodd" clip-rule="evenodd" d="M129.784 64.8538H175.085H129.784Z" fill="white"/>
<path d="M129.784 64.8538H175.085" stroke="#357079" stroke-width="3" stroke-miterlimit="1.5" stroke-linecap="round" stroke-linejoin="round"/>
<path fill-rule="evenodd" clip-rule="evenodd" d="M129.784 77.2056H175.085H129.784Z" fill="white"/>
<path d="M129.784 77.2056H175.085" stroke="#357079" stroke-width="3" stroke-miterlimit="1.5" stroke-linecap="round" stroke-linejoin="round"/>
<path fill-rule="evenodd" clip-rule="evenodd" d="M129.784 88.1824H158.612H129.784Z" fill="white"/>
<path d="M129.784 88.1824H158.612" stroke="#357079" stroke-width="3" stroke-miterlimit="1.5" stroke-linecap="round" stroke-linejoin="round"/>
<path d="M178.392 45.5752C178.392 47.4757 177.334 47.8592 176.067 46.4321L169.7 40.7306C167.617 38.8661 164.467 38.8646 162.383 40.7273L156.008 46.4252C154.727 47.8558 153.683 47.4619 153.683 45.5717L153.683 31.5316C153.683 30.6152 154.054 29.7363 154.716 29.0882C155.378 28.4402 156.275 28.0762 157.211 28.0762H174.853C175.789 28.0762 176.686 28.4402 177.348 29.0882C178.01 29.7363 178.382 30.6152 178.382 31.5316L178.392 45.5752Z" fill="white"/>
</g>
<g opacity="0.5">
<rect width="65.7885" height="78.2466" rx="12.8031" transform="matrix(-1 0 0 1 66.6221 42.7316)" fill="#C0D3D5"/>
<rect width="65.7885" height="78.2466" rx="12.8031" transform="matrix(-1 0 0 1 97.4297 32.7048)" fill="#A2BDC1"/>
<path fill-rule="evenodd" clip-rule="evenodd" d="M88.8506 75.2661H41.6545H88.8506Z" fill="#FAFBFF"/>
<path d="M88.8506 75.2661H41.6545" stroke="#5D8D94" stroke-width="3.30261" stroke-miterlimit="1.5" stroke-linecap="round" stroke-linejoin="round"/>
<path fill-rule="evenodd" clip-rule="evenodd" d="M88.8506 87.6179H41.6545H88.8506Z" fill="#FAFBFF"/>
<path d="M88.8506 87.6179H41.6545" stroke="#5D8D94" stroke-width="3.30261" stroke-miterlimit="1.5" stroke-linecap="round" stroke-linejoin="round"/>
<path fill-rule="evenodd" clip-rule="evenodd" d="M88.8506 98.595H58.8167H88.8506Z" fill="#FAFBFF"/>
<path d="M88.8506 98.595H58.8167" stroke="#5D8D94" stroke-width="3.30261" stroke-miterlimit="1.5" stroke-linecap="round" stroke-linejoin="round"/>
<rect width="65.7885" height="78.2466" rx="12.8031" transform="matrix(-1 0 0 1 128.234 22.6871)" fill="#357079"/>
<path fill-rule="evenodd" clip-rule="evenodd" d="M119.655 65.2484H72.4592H119.655Z" fill="white"/>
<path d="M119.655 65.2484H72.4592" stroke="#357079" stroke-width="3" stroke-miterlimit="1.5" stroke-linecap="round" stroke-linejoin="round"/>
<path fill-rule="evenodd" clip-rule="evenodd" d="M119.655 77.6002H72.4592H119.655Z" fill="white"/>
<path d="M119.655 77.6002H72.4592" stroke="#357079" stroke-width="3" stroke-miterlimit="1.5" stroke-linecap="round" stroke-linejoin="round"/>
<path fill-rule="evenodd" clip-rule="evenodd" d="M119.655 88.5773H89.6214H119.655Z" fill="white"/>
<path d="M119.655 88.5773H89.6214" stroke="#357079" stroke-width="3" stroke-miterlimit="1.5" stroke-linecap="round" stroke-linejoin="round"/>
</g>
<rect x="84.5703" y="0.0217285" width="78.2502" height="93.0681" rx="12.8031" fill="#357079"/>
<path fill-rule="evenodd" clip-rule="evenodd" d="M94.7754 50.6453H150.911H94.7754Z" fill="white"/>
<path d="M94.7754 50.6453H150.911" stroke="white" stroke-width="3" stroke-miterlimit="1.5" stroke-linecap="round" stroke-linejoin="round"/>
<path fill-rule="evenodd" clip-rule="evenodd" d="M94.7754 65.3364H150.911H94.7754Z" fill="white"/>
<path d="M94.7754 65.3364H150.911" stroke="white" stroke-width="3" stroke-miterlimit="1.5" stroke-linecap="round" stroke-linejoin="round"/>
<path fill-rule="evenodd" clip-rule="evenodd" d="M94.7754 78.3923H130.498H94.7754Z" fill="white"/>
<path d="M94.7754 78.3923H130.498" stroke="white" stroke-width="3" stroke-miterlimit="1.5" stroke-linecap="round" stroke-linejoin="round"/>
<path d="M155.009 37.7968C155.009 40.0573 153.698 40.5135 152.128 38.816L143.279 31.2107C141.224 29.4442 138.187 29.4428 136.13 31.2075L127.271 38.8078C125.684 40.5093 124.39 40.0408 124.39 37.7927L124.39 12.166C124.39 11.076 124.85 10.0306 125.67 9.25981C126.49 8.48904 127.602 8.05603 128.762 8.05603H150.624C151.784 8.05603 152.896 8.48904 153.716 9.25981C154.536 10.0306 154.996 11.076 154.996 12.166L155.009 37.7968Z" fill="white"/>
<circle cx="120.485" cy="95.9981" r="13.8476" fill="#F0C8B6"/>
<path d="M114.717 95.5773L119.662 100.613L126.256 91.3811" stroke="#357079" stroke-width="3" stroke-miterlimit="1.5" stroke-linecap="round" stroke-linejoin="round"/>
</svg>
