<svg width="99" height="50" viewBox="0 0 99 50" fill="none" xmlns="http://www.w3.org/2000/svg">
<path d="M29.6846 48.926V46.6192H30.7659V38.6177H29.6846V36.311H35.3433C37.9564 36.311 39.3441 37.8608 39.3441 39.8612C39.3441 40.8344 38.7674 41.7174 37.9925 42.1679V42.2761C38.8935 42.7086 39.7405 43.6457 39.7405 45.0514C39.7405 47.5023 37.8483 48.926 35.7218 48.926H29.6846ZM33.3609 41.339H35.3073C36.1182 41.339 36.6589 40.7623 36.6589 40.0234C36.6589 39.3025 36.0822 38.7439 35.3073 38.7439H33.3609V41.339ZM33.3609 46.5111H35.3613C36.2804 46.5111 37.0013 45.9164 37.0013 44.9793C37.0013 44.0422 36.2624 43.4655 35.3433 43.4655H33.3609V46.5111Z" fill="white"/>
<path d="M21.1018 49.1603C17.894 49.1603 16.1279 47.178 16.1279 44.2224V36.311H18.8131V44.2044C18.8131 45.6461 19.588 46.5652 21.1018 46.5652C22.5976 46.5652 23.3906 45.6461 23.3906 44.1864V36.311H26.0758V44.2044C26.0758 47.1419 24.2736 49.1603 21.1018 49.1603Z" fill="white"/>
<path d="M1.9043 48.926V36.311H4.58949V41.2669H9.38319V36.311H12.0504V48.926H9.38319V43.7899H4.58949V48.926H1.9043Z" fill="white"/>
<path d="M93.3123 31.1391C90.537 31.1391 88.5186 29.3549 88.5186 26.5977H91.2038C91.2038 27.8231 92.1949 28.544 93.4024 28.544C94.6819 28.544 95.3126 27.9853 95.3126 27.2284C95.3126 24.5072 88.897 26.868 88.897 21.7679C88.897 19.7856 90.537 18.0555 93.2762 18.0555C95.3307 18.0555 97.7455 19.1728 97.7455 22.2725H95.0423C95.0423 21.2813 94.3575 20.5425 93.2041 20.5425C92.0508 20.5425 91.5822 21.1732 91.5822 21.7679C91.5822 24.1287 98.0699 22.0382 98.0699 27.2464C98.0699 29.409 96.2678 31.1391 93.3123 31.1391Z" fill="white"/>
<path d="M79.8265 31.1571C75.9699 31.1571 73.3027 28.3097 73.3027 24.5973C73.3027 20.9029 75.9699 18.0555 79.8265 18.0555C82.7099 18.0555 85.1428 19.6955 85.9898 22.705H83.1244C82.5658 21.3715 81.2682 20.6506 79.8265 20.6506C77.6639 20.6506 76.078 22.3446 76.078 24.5973C76.078 26.868 77.6639 28.544 79.8265 28.544C81.1961 28.544 82.5297 27.8772 83.1244 26.5076H85.9898C85.1428 29.5352 82.7099 31.1571 79.8265 31.1571Z" fill="white"/>
<path d="M64.3965 30.9049V28.4539H66.0905V20.7408H64.3965V18.2899H70.5058V20.7408H68.7757V28.4539H70.5058V30.9049H64.3965Z" fill="white"/>
<path d="M55.4716 30.9049V20.8129H52.1016V18.2899H61.5088V20.8129H58.1387V30.9049H55.4716Z" fill="white"/>
<path d="M45.0076 31.1391C42.2323 31.1391 40.2139 29.3549 40.2139 26.5977H42.8991C42.8991 27.8231 43.8902 28.544 45.0977 28.544C46.3772 28.544 47.0079 27.9853 47.0079 27.2284C47.0079 24.5072 40.5923 26.868 40.5923 21.7679C40.5923 19.7856 42.2323 18.0555 44.9715 18.0555C47.026 18.0555 49.4408 19.1728 49.4408 22.2725H46.7376C46.7376 21.2813 46.0528 20.5425 44.8994 20.5425C43.7461 20.5425 43.2775 21.1732 43.2775 21.7679C43.2775 24.1287 49.7652 22.0382 49.7652 27.2464C49.7652 29.409 47.9631 31.1391 45.0076 31.1391Z" fill="white"/>
<path d="M35.3948 30.9049L34.5839 28.3819H29.628L28.817 30.9049H25.9336L30.2047 18.2899H33.9892L38.2242 30.9049H35.3948ZM30.4029 25.9309H33.7909L32.187 20.9931H31.9888L30.4029 25.9309Z" fill="white"/>
<path d="M16.248 30.9049V18.2899H18.9332V28.3999H23.9252V30.9049H16.248Z" fill="white"/>
<path d="M2.625 30.9049V18.2899H7.11234C9.61732 18.2899 11.3113 19.8938 11.3113 22.3447C11.3113 24.7776 9.52721 26.4536 7.11234 26.4536H5.31019V30.9049H2.625ZM5.31019 23.9486H7.00421C7.97737 23.9486 8.60812 23.2638 8.60812 22.3447C8.60812 21.4436 7.97737 20.7948 7.00421 20.7948H5.31019V23.9486Z" fill="white"/>
<path d="M68.5654 12.8837V0.268646H71.2506V10.3787H76.2426V12.8837H68.5654Z" fill="white"/>
<path d="M63.1156 12.8837L62.3046 10.3607H57.3487L56.5377 12.8837H53.6543L57.9254 0.268646H61.7099L65.9449 12.8837H63.1156ZM58.1236 7.90974H61.5116L59.9077 2.97186H59.7095L58.1236 7.90974Z" fill="white"/>
<path d="M41.7139 12.8837V10.5769H42.7952V2.57539H41.7139V0.268646H47.3726C49.9857 0.268646 51.3734 1.81849 51.3734 3.81887C51.3734 4.79203 50.7967 5.67508 50.0217 6.12561V6.23374C50.9228 6.66626 51.7698 7.60337 51.7698 9.00904C51.7698 11.46 49.8776 12.8837 47.751 12.8837H41.7139ZM45.3902 5.29663H47.3366C48.1475 5.29663 48.6882 4.71994 48.6882 3.98106C48.6882 3.2602 48.1115 2.70154 47.3366 2.70154H45.3902V5.29663ZM45.3902 10.4688H47.3906C48.3097 10.4688 49.0306 9.87407 49.0306 8.93696C49.0306 7.99984 48.2917 7.42316 47.3726 7.42316H45.3902V10.4688Z" fill="white"/>
<path d="M32.1696 13.1173C28.3671 13.1173 25.5918 10.288 25.5918 6.55751C25.5918 2.86312 28.4031 0.0337524 32.1696 0.0337524C35.9721 0.0337524 38.7474 2.89916 38.7474 6.55751C38.7474 10.2519 35.9541 13.1173 32.1696 13.1173ZM32.1696 10.5222C34.3322 10.5222 35.9721 8.84624 35.9721 6.55751C35.9721 4.30483 34.3322 2.62884 32.1696 2.62884C29.971 2.62884 28.3671 4.30483 28.3671 6.55751C28.3671 8.84624 29.971 10.5222 32.1696 10.5222Z" fill="white"/>
<path d="M16.2832 12.8837V0.268646H18.9684V10.3787H23.9603V12.8837H16.2832Z" fill="white"/>
<path d="M6.64432 13.1352C2.78773 13.1172 0.102539 10.2879 0.102539 6.57544C0.102539 2.88105 2.78773 0.0336609 6.64432 0.0336609C9.52775 0.0336609 11.9606 1.70966 12.8077 4.71923H9.94224C9.38358 3.38565 8.08603 2.62875 6.64432 2.62875C4.37362 2.62875 2.87784 4.32276 2.87784 6.57544C2.87784 8.84614 4.39164 10.5762 6.66234 10.5762C8.19416 10.5762 9.43764 9.98149 10.0684 8.61187H6.73443V6.34116H13.0419C12.9518 11.261 9.52775 13.1352 6.64432 13.1352Z" fill="white"/>
</svg>
