<svg width="62" height="46" viewBox="0 0 62 46" fill="none" xmlns="http://www.w3.org/2000/svg">
<path d="M48.9052 15.6238C46.4528 14.8836 44.6675 12.6083 44.6675 9.91785C44.6675 9.43165 44.7249 8.95911 44.8343 8.50842L48.7083 9.00555C48.7083 9.00555 50.1956 9.0711 50.1409 11.7015C50.089 14.2526 48.9052 15.6238 48.9052 15.6238Z" fill="white"/>
<path d="M52.37 15.6238C54.8224 14.8836 56.6077 12.6083 56.6077 9.91785C56.6077 9.43165 56.5503 8.95911 56.441 8.50842L52.5669 9.00555C52.5669 9.00555 51.0796 9.0711 51.1343 11.7015C51.1862 14.2526 52.37 15.6238 52.37 15.6238Z" fill="white"/>
<path d="M50.6359 5.65138C51.1335 5.65138 51.5381 6.05563 51.5381 6.55276C51.5381 6.94062 51.2702 7.23015 50.9476 7.40223C50.9093 7.42409 50.871 7.44047 50.8792 7.5033C50.8874 7.56612 51.0734 7.60163 51.1526 7.62075L56.3609 8.2244C55.6309 5.75791 53.3453 3.95789 50.6386 3.95789H50.6304C47.9238 3.95789 45.6409 5.75791 44.9082 8.2244L50.1165 7.62075C50.1957 7.60163 50.3817 7.56885 50.3899 7.5033C50.3981 7.44321 50.3598 7.42409 50.3215 7.40223C49.9989 7.23015 49.731 6.94062 49.731 6.55276C49.7337 6.05563 50.1383 5.65138 50.6359 5.65138Z" fill="white"/>
<path d="M53.0175 19.8438L53.3702 19.6226C53.3702 19.6226 51.697 17.3555 47.9514 17.3555C46.0349 17.3555 45.0424 18.1257 43.7 18.1257C43.7 18.1257 43.1505 18.1913 42.6201 17.8608C42.6201 17.8608 43.2599 18.784 45.5728 18.784C47.2679 18.784 48.4818 17.7925 49.6711 17.7925C51.2978 17.7952 52.509 19.2484 53.0175 19.8438Z" fill="white"/>
<path d="M47.8175 19.8438L47.4648 19.6226C47.4648 19.6226 49.138 17.3555 52.8836 17.3555C54.8001 17.3555 55.7926 18.1257 57.135 18.1257C57.135 18.1257 57.6845 18.1913 58.2149 17.8608C58.2149 17.8608 57.5751 18.784 55.2622 18.784C53.5671 18.784 52.3532 17.7925 51.1639 17.7925C49.5372 17.7952 48.3233 19.2484 47.8175 19.8438Z" fill="white"/>
<path d="M46.0325 17.159C45.9669 17.3338 45.2505 17.1262 44.7666 17.2682C44.2253 17.4294 41.3628 17.7735 40.1079 14.8045C40.1079 14.8045 41.2972 16.08 42.224 16.1702C43.1481 16.2576 44.1624 16.4788 45.0209 16.9623L45.2205 17.006C45.2205 17.006 45.1931 16.9186 45.1111 16.8749C44.999 16.8148 44.1077 16.5253 43.6785 15.1131C43.457 14.3865 43.5035 13.8594 43.4133 13.4852C43.4133 13.4852 44.3839 14.5641 44.7803 15.2469C45.174 15.9271 45.2177 16.6973 46.0325 17.159Z" fill="white"/>
<path d="M43.1148 15.6622C43.0437 15.7332 42.8605 15.6184 42.7949 15.5857C42.7293 15.5529 42.2536 15.3344 41.4388 15.0476C40.635 14.7608 39.1368 13.4961 39.279 11.3274C39.279 11.3274 39.4895 12.1413 40.1046 12.6821C40.7225 13.2202 40.9412 13.2885 41.3158 13.7283C41.6904 14.1681 42.5379 15.1705 42.5707 15.1596C42.6035 15.1486 42.6144 15.094 42.5488 15.0394C42.4832 14.9848 42.2618 14.433 42.1196 14.2473C41.9774 14.0615 41.5482 12.7723 42.1743 11.188C42.1743 11.188 42.8468 12.3434 42.8031 13.5098C42.7593 14.6761 42.7047 14.4002 42.989 15.3699C42.9917 15.3644 43.1476 15.6294 43.1148 15.6622Z" fill="white"/>
<path d="M41.2423 12.8352C41.2013 12.8761 41.0318 12.6248 40.9006 12.3954C40.7693 12.1632 39.8425 11.1744 39.7222 10.975C39.6019 10.7756 38.5657 9.52191 39.3477 7.6618C39.3477 7.6618 39.4242 7.63995 39.4242 8.07971C39.4242 8.51947 39.8316 9.50006 40.1624 9.91797C40.4932 10.3359 40.7912 11.0078 40.8568 11.7235C40.8568 11.7235 40.9006 11.8546 40.9552 11.8655C41.0099 11.8764 41.0099 11.7344 41.0099 11.7344C41.0099 11.7344 40.9662 11.0734 40.9662 10.6227C40.9662 10.172 41.1658 9.40173 41.595 8.96197C41.595 8.96197 41.7946 8.74072 41.9149 8.4785C41.9149 8.4785 41.9914 8.30369 42.1008 8.21355C42.1008 8.21355 42.1883 9.47821 41.759 10.6555C41.3298 11.8327 41.1876 12.0321 41.2532 12.6685C41.2532 12.6685 41.2642 12.8106 41.2423 12.8352Z" fill="white"/>
<path d="M40.5149 9.35525C40.4711 9.35525 40.4383 9.20229 40.4164 9.07937C40.3946 8.95919 40.2633 8.25447 40.1731 8.09878C40.0856 7.94582 39.7548 7.24111 39.7439 6.41621C39.7329 5.59132 40.1075 4.4687 40.9441 3.57825C40.9441 3.57825 40.9113 3.8432 40.6898 4.42499C40.4684 5.00952 40.6024 5.55854 40.6242 5.65687C40.6461 5.75521 40.7227 6.43807 40.7227 6.75764C40.7227 7.01167 40.657 7.88027 40.6024 8.05508C40.6024 8.05508 40.5805 8.17526 40.6242 8.17526C40.668 8.17526 40.7117 8.07693 40.7117 8.07693C40.7117 8.07693 40.7555 7.39407 41.2613 6.7795C41.767 6.16219 42.6829 5.78798 42.8251 5.51484C42.8251 5.51484 42.7595 6.4845 41.6905 7.61532C40.7391 8.62595 41.0179 8.10971 40.709 8.9346C40.709 8.9346 40.5778 9.24326 40.5778 9.30881C40.5805 9.37983 40.5149 9.35525 40.5149 9.35525Z" fill="white"/>
<path d="M41.1001 6.09921C41.1001 6.09921 41.0782 5.9681 41.2423 5.67038C41.4063 5.37265 41.2313 4.84548 41.4528 4.07521C41.6742 3.30495 42.0816 1.98566 43.6345 1.19354C43.6345 1.19354 43.4814 1.33558 43.4021 1.44757C43.3256 1.55682 42.9073 2.34894 42.7842 2.90069C42.6639 3.44971 42.1335 4.37567 41.9367 4.58326C41.7371 4.79358 41.8273 4.81543 41.8273 4.81543C41.8273 4.81543 41.9258 4.79358 42.0269 4.64062C42.1253 4.48766 42.6339 3.91406 43.1943 3.78295C43.7548 3.65184 44.6488 3.38689 44.7035 3.33226C44.7035 3.33226 43.7329 4.32377 42.8416 4.82909C41.9504 5.33441 41.8492 5.18145 41.3215 5.86431C41.3188 5.85611 41.1438 6.09921 41.1001 6.09921Z" fill="white"/>
<path d="M43.2349 3.16021C43.2349 3.16021 43.2349 3.07281 43.3989 2.91712C43.5629 2.76416 43.7297 2.29981 44.0168 1.87097C44.3039 1.44214 44.9518 0.319515 46.6387 0.0545654C46.6387 0.0545654 46.1329 0.428773 46.0536 0.548956C45.9771 0.66914 45.4822 1.31922 45.2608 1.54047C45.0393 1.76172 44.4132 2.22333 44.2027 2.32166C44.2027 2.32166 44.0933 2.40907 44.1152 2.44185C44.1371 2.47462 44.2464 2.40907 44.2464 2.40907C44.2464 2.40907 44.8315 1.95838 45.5342 1.93653C46.2395 1.91468 46.9777 1.94745 47.0871 1.95838C47.0871 1.95838 46.4254 2.40907 44.8507 2.69587C43.2759 2.98267 43.5739 2.9936 43.3306 3.14656C43.3333 3.14929 43.2786 3.19299 43.2349 3.16021Z" fill="white"/>
<path d="M46.043 1.3357C46.043 1.3357 46.0758 1.24829 46.33 1.17181C46.5843 1.09533 46.5624 0.852234 47.3334 0.445249C48.1044 0.038264 48.9082 -0.150205 49.7229 0.191225C49.7229 0.191225 49.3812 0.234928 49.3265 0.256779C49.2718 0.278631 48.6867 0.431592 48.5227 0.521729C48.3587 0.609135 47.5084 0.983343 47.1666 1.0489C46.8249 1.11445 46.9917 1.1363 46.9917 1.1363C46.9917 1.1363 47.0682 1.16908 47.1338 1.16908C47.1994 1.16908 47.9595 1.0926 48.4543 1.26741C48.9492 1.44222 48.9383 1.51051 49.1378 1.57607C49.3374 1.64162 49.5671 1.68532 49.5999 1.7618C49.5999 1.7618 49.105 1.80551 48.807 1.80551C48.509 1.80551 47.7271 1.72903 47.3525 1.55148C46.978 1.37667 46.5488 1.29746 46.4066 1.33024C46.2644 1.36848 46.0894 1.36848 46.043 1.3357Z" fill="white"/>
<path d="M49.1733 0.950548C49.1733 0.950548 49.2061 0.906845 49.4276 0.863142C49.6491 0.819439 49.7037 0.688329 50.2205 0.57634C50.7372 0.464351 51.541 0.366019 52.2792 0.874067C52.2792 0.874067 51.828 0.863142 51.7296 0.863142C51.6312 0.863142 50.7727 1.0161 50.5731 1.0161C50.3736 1.0161 49.9771 0.928696 49.9225 0.994251C49.8678 1.05981 50.2861 1.14721 50.3517 1.16906C50.4173 1.19091 50.7153 1.21277 51.0899 1.57605C51.4644 1.93933 51.7296 2.13599 51.7734 2.16058C51.7734 2.16058 50.6716 1.90655 50.3954 1.75359C50.1193 1.60063 49.6463 1.12536 49.5698 1.09258C49.4905 1.05981 49.1733 0.950548 49.1733 0.950548Z" fill="white"/>
<path d="M51.7158 1.40113C51.7158 1.40113 52.4103 1.37928 52.916 1.69886C53.4218 2.01844 53.8292 2.43635 53.8729 2.69037C53.8729 2.69037 53.5859 2.44728 53.4 2.39265C53.2113 2.33802 52.6837 2.04029 52.5743 1.97474C52.4649 1.90918 51.8252 1.49947 51.7158 1.40113Z" fill="white"/>
<path d="M54.9775 17.2791C54.9775 17.2791 55.076 17.1808 55.4068 16.894C55.7376 16.6072 55.8251 16.1893 56.1887 15.5392C56.5523 14.8891 56.8613 14.4384 57.5994 13.7774C57.5994 13.7774 57.4682 14.2718 57.4573 14.4275C57.4463 14.5804 57.326 15.4409 56.9077 15.9352C56.4894 16.4296 56.4676 16.5416 55.9836 16.8366C55.9836 16.8366 55.795 16.9677 55.8087 17.0114C55.8196 17.0551 56.1395 17.0005 56.1395 17.0005C56.1395 17.0005 56.4922 16.8694 56.6015 16.8011C56.7109 16.7356 57.2085 16.4815 57.4053 16.4051C57.6049 16.3286 57.7689 16.2521 58.2091 16.1183C58.6493 15.9871 60.2459 15.5802 60.8748 14.5668C60.8748 14.5668 60.6888 15.1622 60.4565 15.4354C60.2241 15.7113 58.9145 17.4375 57.0964 17.4048C57.0964 17.4048 56.3801 17.3501 56.0055 17.2846C55.631 17.219 55.4997 17.219 55.4451 17.2299C55.3849 17.2463 55.0322 17.3119 54.9775 17.2791Z" fill="white"/>
<path d="M59.0403 11.106C59.0403 11.106 58.3568 12.174 58.2037 13.7146C58.0506 15.2551 58.3131 14.7935 58.0616 15.4763C58.0616 15.4763 57.9741 15.6511 58.0069 15.6621C58.0397 15.673 58.1709 15.5965 58.6576 15.2988C59.1415 15.0011 59.6172 15.0885 60.6506 14.0997C61.6868 13.1082 61.8946 11.1388 61.9165 10.9749C61.9165 10.9749 61.7634 11.1279 61.6841 11.3928C61.6075 11.6578 61.4408 11.8654 61.408 11.8981C61.3752 11.9309 60.2515 13.1628 60.1202 13.2748C59.989 13.384 59.3274 14.1871 59.1852 14.4193C59.0431 14.6514 58.6248 15.0693 58.5455 15.0366C58.5455 15.0366 58.5564 14.9382 58.5892 14.8618C58.622 14.7853 58.931 14.3674 59.0622 13.8812C59.1934 13.3977 59.2262 13.1 59.2372 12.7913C59.2508 12.4827 59.0513 11.3491 59.0403 11.106Z" fill="white"/>
<path d="M59.967 12.5919C59.967 12.5919 59.8986 12.4308 59.9561 12.3161C59.9889 12.2505 60.0217 11.7206 59.8248 11.2918C59.628 10.8629 59.196 9.67476 59.2288 8.88264C59.2616 8.09052 59.3491 7.98127 59.3491 7.98127C59.3491 7.98127 59.5706 8.63135 59.6362 8.74061C59.7018 8.84986 60.3634 10.0162 60.3087 10.6553C60.2541 11.2945 60.2213 11.4912 60.2541 11.5021C60.2869 11.513 60.3634 11.4256 60.3744 11.3491C60.3853 11.2727 60.4947 10.8329 60.7052 10.3139C60.9157 9.79767 61.7632 8.6532 61.9491 7.89386C61.9491 7.89386 62.2253 9.21315 61.4871 10.4478C60.7489 11.6796 60.6724 11.4038 60.3634 11.9664C60.0545 12.5264 60.0107 12.5919 59.967 12.5919Z" fill="white"/>
<path d="M60.6369 9.10384C60.5822 9.09292 60.615 8.5876 60.4838 8.42098C60.3525 8.25709 59.2179 6.91322 58.9746 5.57209C58.9746 5.57209 59.6909 6.29865 59.8112 6.37513C59.9315 6.45161 60.4182 6.93508 60.5603 7.35572C60.7025 7.77363 60.6697 8.12599 60.7244 8.13691C60.779 8.14784 60.779 7.6753 60.779 7.6753C60.779 7.6753 60.79 6.75207 60.8665 6.30958C60.9431 5.86981 61.1427 5.13233 61.0552 4.75812C61.0552 4.75812 61.4844 5.44098 61.4625 6.40791C61.4407 7.37757 61.0333 8.14784 60.9786 8.25709C60.9239 8.36635 60.7681 8.84162 60.7681 8.93995C60.7708 9.03829 60.6369 9.10384 60.6369 9.10384Z" fill="white"/>
<path d="M59.2942 2.21509C59.2942 2.21509 60.7815 3.09461 60.5491 6.04457C60.5491 6.04457 60.5491 6.17568 60.4616 6.03364C60.3742 5.89161 60.0543 5.48462 59.9121 5.39449C59.77 5.30708 58.4467 4.50404 57.8862 3.26942C57.8862 3.26942 57.9737 3.24757 58.1077 3.36776C58.2389 3.48794 58.6463 3.69826 58.7146 3.73104C58.7802 3.76382 59.2423 3.884 59.584 4.25821C59.9258 4.63241 60.0461 4.90829 60.1445 5.1268C60.1445 5.1268 60.2429 5.20329 60.1773 4.98477C60.1117 4.76352 60.1008 4.62149 59.9231 4.34561C59.7481 4.06974 59.5922 3.57535 59.5704 3.23392C59.5485 2.89795 59.4473 2.3899 59.2942 2.21509Z" fill="white"/>
<path d="M59.04 3.25038C59.04 3.25038 59.0729 3.05099 58.9307 2.77784C58.7885 2.50197 58.9006 2.19605 58.4468 1.46948C58.1925 1.0625 57.3122 0.74292 57.3122 0.74292C57.3122 0.74292 57.5664 1.09528 57.7305 1.29194C57.8945 1.49133 57.9519 1.63337 58.0066 1.7317C58.0613 1.83003 58.3675 2.12503 58.4796 2.29165C58.5014 2.32442 58.5452 2.41183 58.5452 2.46646C58.5452 2.52109 58.4249 2.43368 58.3921 2.4009C58.3593 2.36813 57.8207 1.96114 57.4789 1.89559C57.1372 1.83003 56.4865 1.76448 56.3115 1.67434C56.3115 1.67434 57.0825 2.36813 57.9191 2.57572C58.753 2.78604 59.04 3.25038 59.04 3.25038Z" fill="white"/>
<path d="M57.3017 1.43399C57.3017 1.43399 56.5308 0.387849 55.1528 0.4097C55.1528 0.4097 55.2294 0.486181 55.3852 0.518958C55.5383 0.551735 55.8145 0.827611 55.9566 0.915017C56.1015 1.00515 56.3968 1.22367 57.3017 1.43399Z" fill="white"/>
<path d="M15.026 0V12.9279C15.026 14.0587 14.8374 15.0557 14.4601 15.9216C14.0828 16.7874 13.5633 17.5113 12.899 18.0931C12.2346 18.6749 11.4418 19.1146 10.5231 19.4124C9.60178 19.7074 8.60114 19.8576 7.51301 19.8576C6.41668 19.8576 5.41057 19.7101 4.48921 19.4124C3.56786 19.1174 2.77774 18.6776 2.11338 18.0931C1.44902 17.5113 0.929557 16.7847 0.557734 15.9216C0.185911 15.0557 0 14.0587 0 12.9279V0H4.04084V12.9279C4.04084 14.2117 4.34705 15.1458 4.96219 15.7331C5.57734 16.3204 6.42761 16.6154 7.51301 16.6154C8.60934 16.6154 9.45961 16.3231 10.0638 15.7331C10.6708 15.1458 10.9715 14.2117 10.9715 12.9279V0H15.026Z" fill="white"/>
<path d="M34.2817 19.5872H30.2436L22.3807 6.70023V19.5872H18.3398V0H22.3779L30.2546 12.9143V0H34.2817V19.5872Z" fill="white"/>
<path d="M2.91415 32.2392C2.06661 32.2392 1.37491 31.9742 0.841782 31.4443C0.308654 30.9144 0.043457 30.207 0.043457 29.3247V29.1718C0.043457 28.5791 0.155551 28.0519 0.379738 27.5848C0.603925 27.1177 0.921068 26.7572 1.3339 26.5059C1.744 26.2546 2.21425 26.1262 2.74191 26.1262C3.53203 26.1262 4.15538 26.3802 4.60922 26.8883C5.06306 27.3963 5.28998 28.1174 5.28998 29.0516V29.6935H1.61003C1.65925 30.0786 1.80961 30.3873 2.06114 30.6194C2.31267 30.8516 2.62981 30.9691 3.0153 30.9691C3.61131 30.9691 4.07609 30.7506 4.40964 30.3108L5.16695 31.1767C4.93457 31.5099 4.62289 31.7721 4.22646 31.9578C3.83277 32.1463 3.39533 32.2392 2.91415 32.2392ZM2.73917 27.3963C2.43296 27.3963 2.18417 27.5029 1.99279 27.7132C1.80141 27.9262 1.68112 28.2267 1.62644 28.6228H3.77535V28.4971C3.76715 28.1475 3.6742 27.8771 3.49649 27.6859C3.31878 27.4919 3.06725 27.3963 2.73917 27.3963Z" fill="white"/>
<path d="M7.6581 26.2382L7.70731 26.9184C8.12014 26.3912 8.67514 26.129 9.36957 26.129C9.98199 26.129 10.4386 26.312 10.7366 26.678C11.0346 27.044 11.1904 27.593 11.1959 28.3223V32.1299H9.65118V28.3606C9.65118 28.0273 9.58009 27.7842 9.43792 27.634C9.29576 27.4838 9.0579 27.4073 8.72709 27.4073C8.29238 27.4073 7.96704 27.5958 7.74832 27.9727V32.1299H6.20361V26.2382H7.6581Z" fill="white"/>
<path d="M14.5965 30.207L15.671 26.2355H17.284L15.3319 32.1299H13.8583L11.9062 26.2355H13.5193L14.5965 30.207Z" fill="white"/>
<path d="M18.0195 24.7113C18.0195 24.4764 18.0961 24.2797 18.2519 24.1268C18.4078 23.9738 18.6183 23.8973 18.8862 23.8973C19.1487 23.8973 19.3592 23.9738 19.5178 24.1268C19.6736 24.2797 19.7529 24.4737 19.7529 24.7113C19.7529 24.9517 19.6736 25.1456 19.515 25.2986C19.3565 25.4515 19.1459 25.528 18.8862 25.528C18.6265 25.528 18.416 25.4515 18.2574 25.2986C18.0988 25.1483 18.0195 24.9517 18.0195 24.7113ZM19.6599 32.1299H18.1098V26.2382H19.6599V32.1299Z" fill="white"/>
<path d="M24.248 27.7132C24.0375 27.6832 23.8516 27.6695 23.693 27.6695C23.1079 27.6695 22.7251 27.8716 22.5447 28.2731V32.1299H21V26.2382H22.46L22.5037 26.9402C22.8126 26.3994 23.2419 26.129 23.7914 26.129C23.9636 26.129 24.1222 26.1535 24.2726 26.2L24.248 27.7132Z" fill="white"/>
<path d="M24.625 29.1308C24.625 28.5463 24.7344 28.0246 24.9558 27.5684C25.1773 27.1096 25.4944 26.7572 25.91 26.5059C26.3255 26.2546 26.8067 26.129 27.3563 26.129C28.1354 26.129 28.7725 26.3721 29.2673 26.8583C29.7622 27.3445 30.0356 28.0055 30.093 28.8413L30.1039 29.2455C30.1039 30.1496 29.8551 30.8762 29.3603 31.4225C28.8654 31.9688 28.2011 32.2419 27.3672 32.2419C26.5333 32.2419 25.869 31.9688 25.3714 31.4252C24.8738 30.8817 24.625 30.1387 24.625 29.2018V29.1308V29.1308ZM26.1697 29.2401C26.1697 29.8 26.2736 30.2289 26.4786 30.5239C26.6864 30.8216 26.9817 30.9691 27.3672 30.9691C27.7417 30.9691 28.0343 30.8216 28.2448 30.5293C28.4553 30.2371 28.5592 29.7672 28.5592 29.1254C28.5592 28.5763 28.4553 28.1502 28.2448 27.8498C28.0343 27.5493 27.739 27.3964 27.3563 27.3964C26.979 27.3964 26.6864 27.5466 26.4786 27.847C26.2736 28.1475 26.1697 28.6118 26.1697 29.2401Z" fill="white"/>
<path d="M32.5429 26.2382L32.5921 26.9184C33.0049 26.3912 33.5599 26.129 34.2543 26.129C34.8668 26.129 35.3233 26.312 35.6213 26.678C35.9193 27.044 36.0752 27.593 36.0806 28.3223V32.1299H34.5359V28.3606C34.5359 28.0273 34.4649 27.7842 34.3227 27.634C34.1805 27.4838 33.9427 27.4073 33.6119 27.4073C33.1771 27.4073 32.8518 27.5958 32.6331 27.9727V32.1299H31.0884V26.2382H32.5429Z" fill="white"/>
<path d="M38.7651 26.2382L38.8143 26.8965C39.2244 26.383 39.7794 26.129 40.4766 26.129C41.2203 26.129 41.7315 26.4294 42.0104 27.0276C42.415 26.4294 42.9946 26.129 43.7465 26.129C44.3725 26.129 44.8401 26.3147 45.1463 26.6862C45.4525 27.0577 45.6056 27.6176 45.6056 28.366V32.1299H44.0554V28.3715C44.0554 28.0382 43.9925 27.7924 43.864 27.6395C43.7355 27.4838 43.5086 27.4073 43.186 27.4073C42.724 27.4073 42.4013 27.6313 42.2236 28.0819L42.2291 32.1299H40.6844V28.3769C40.6844 28.0355 40.6188 27.7897 40.4875 27.6367C40.3563 27.4838 40.1321 27.4073 39.815 27.4073C39.3775 27.4073 39.0604 27.593 38.8636 27.9618V32.1299H37.3188V26.2382H38.7651Z" fill="white"/>
<path d="M49.5211 32.2392C48.6735 32.2392 47.9818 31.9742 47.4487 31.4443C46.9156 30.9144 46.6504 30.207 46.6504 29.3247V29.1718C46.6504 28.5791 46.7625 28.0519 46.9867 27.5848C47.2109 27.1177 47.528 26.7572 47.9408 26.5059C48.3509 26.2546 48.8212 26.1262 49.3488 26.1262C50.139 26.1262 50.7623 26.3802 51.2162 26.8883C51.67 27.3963 51.8969 28.1174 51.8969 29.0516V29.6935H48.2142C48.2634 30.0786 48.4138 30.3873 48.6653 30.6194C48.9169 30.8516 49.234 30.9691 49.6195 30.9691C50.2155 30.9691 50.6803 30.7506 51.0138 30.3108L51.7712 31.1767C51.5388 31.5099 51.2271 31.7721 50.8307 31.9578C50.4424 32.1463 50.0023 32.2392 49.5211 32.2392ZM49.3461 27.3963C49.0399 27.3963 48.7911 27.5029 48.5997 27.7132C48.4083 27.9262 48.288 28.2267 48.2334 28.6228H50.3823V28.4971C50.3741 28.1475 50.2811 27.8771 50.1034 27.6859C49.9257 27.4919 49.6742 27.3963 49.3461 27.3963Z" fill="white"/>
<path d="M54.2636 26.2382L54.3128 26.9184C54.7256 26.3912 55.2806 26.129 55.975 26.129C56.5875 26.129 57.044 26.312 57.342 26.678C57.64 27.044 57.7959 27.593 57.8013 28.3223V32.1299H56.2566V28.3606C56.2566 28.0273 56.1856 27.7842 56.0434 27.634C55.9012 27.4838 55.6634 27.4073 55.3326 27.4073C54.8979 27.4073 54.5725 27.5958 54.3538 27.9727V32.1299H52.8091V26.2382H54.2636Z" fill="white"/>
<path d="M60.8885 24.7878V26.2382H61.8782V27.3936H60.8885V30.3353C60.8885 30.5539 60.9295 30.7095 61.0116 30.8024C61.0936 30.898 61.2494 30.9445 61.4818 30.9445C61.6513 30.9445 61.8044 30.9308 61.9356 30.9062V32.0998C61.6322 32.1954 61.3205 32.2419 61.0006 32.2419C59.918 32.2419 59.3657 31.6847 59.3438 30.5702V27.3936H58.499V26.2382H59.3438V24.7878H60.8885V24.7878Z" fill="white"/>
<path d="M5.45943 39.8407C5.45943 40.7475 5.25711 41.4768 4.85248 42.0231C4.44785 42.5694 3.90105 42.8425 3.21482 42.8425C2.62974 42.8425 2.15676 42.6349 1.79861 42.2225V45.0004H0.253906V36.8416H1.68652L1.7412 37.4179C2.11575 36.959 2.6024 36.7323 3.20662 36.7323C3.92019 36.7323 4.47245 37.0027 4.86888 37.5381C5.26531 38.0762 5.46216 38.8164 5.46216 39.7615V39.8407H5.45943ZM3.91472 39.726C3.91472 39.1769 3.81903 38.7536 3.62765 38.4558C3.43627 38.1581 3.16014 38.0079 2.79652 38.0079C2.3126 38.0079 1.97905 38.1964 1.79588 38.5733V40.9879C1.98452 41.3758 2.3208 41.5697 2.80472 41.5697C3.54563 41.5724 3.91472 40.9551 3.91472 39.726Z" fill="white"/>
<path d="M9.73333 38.3138C9.52282 38.2838 9.3369 38.2701 9.17833 38.2701C8.59326 38.2701 8.2105 38.4723 8.03006 38.8738V42.7306H6.48535V36.8361H7.9453L7.98905 37.5381C8.29799 36.9973 8.72722 36.7269 9.27676 36.7269C9.449 36.7269 9.60757 36.7514 9.75794 36.7979L9.73333 38.3138Z" fill="white"/>
<path d="M10.1074 39.7315C10.1074 39.147 10.2168 38.6253 10.4382 38.1691C10.6597 37.7103 10.9768 37.3579 11.3924 37.1066C11.808 36.8553 12.2891 36.7297 12.8387 36.7297C13.6179 36.7297 14.2549 36.9728 14.7497 37.459C15.2446 37.9452 15.518 38.6062 15.5754 39.442L15.5863 39.8463C15.5863 40.7504 15.3375 41.4769 14.8427 42.0232C14.3478 42.5695 13.6835 42.8426 12.8496 42.8426C12.0157 42.8426 11.3514 42.5695 10.8538 42.0259C10.3562 41.4824 10.1074 40.7394 10.1074 39.8025V39.7315V39.7315ZM11.6521 39.8435C11.6521 40.4035 11.756 40.8323 11.9611 41.1273C12.1689 41.425 12.4641 41.5725 12.8496 41.5725C13.2242 41.5725 13.5167 41.425 13.7272 41.1328C13.9377 40.8405 14.0416 40.3707 14.0416 39.7288C14.0416 39.1798 13.9377 38.7537 13.7272 38.4532C13.5167 38.1528 13.2214 37.9998 12.8387 37.9998C12.4614 37.9998 12.1689 38.15 11.9611 38.4505C11.756 38.7482 11.6521 39.2126 11.6521 39.8435Z" fill="white"/>
<path d="M16.3795 39.7425C16.3795 38.8383 16.59 38.1091 17.011 37.5573C17.4348 37.0056 18.0035 36.7297 18.7198 36.7297C19.3541 36.7297 19.8462 36.9509 20.2016 37.3934L20.2645 36.8389H21.6643V42.5367C21.6643 43.053 21.5495 43.5009 21.3198 43.8833C21.0902 44.2657 20.7675 44.5553 20.3492 44.7547C19.9309 44.954 19.4443 45.0551 18.8838 45.0551C18.4601 45.0551 18.0472 44.9677 17.6426 44.7956C17.2407 44.6235 16.9345 44.3996 16.7294 44.1291L17.4129 43.1704C17.7984 43.6102 18.2632 43.8287 18.8127 43.8287C19.2228 43.8287 19.5427 43.7167 19.7696 43.4927C19.9966 43.2687 20.1114 42.9519 20.1114 42.5422V42.2253C19.756 42.6351 19.2857 42.8399 18.7061 42.8399C18.0117 42.8399 17.4485 42.564 17.0192 42.0096C16.59 41.4551 16.374 40.7203 16.374 39.8053V39.7425H16.3795ZM17.9242 39.8599C17.9242 40.3953 18.0281 40.8132 18.2386 41.1164C18.4491 41.4196 18.7362 41.5725 19.1053 41.5725C19.5755 41.5725 19.9118 41.3922 20.1141 41.0317V38.5488C19.9063 38.1883 19.5755 38.008 19.1135 38.008C18.7444 38.008 18.4519 38.1637 18.2386 38.4723C18.0308 38.781 17.9242 39.2453 17.9242 39.8599Z" fill="white"/>
<path d="M26.1669 38.3138C25.9564 38.2838 25.7705 38.2701 25.6119 38.2701C25.0269 38.2701 24.6441 38.4723 24.4637 38.8738V42.7306H22.9189V36.8361H24.3789L24.4226 37.5381C24.7316 36.9973 25.1608 36.7269 25.7103 36.7269C25.8826 36.7269 26.0412 36.7514 26.1915 36.7979L26.1669 38.3138Z" fill="white"/>
<path d="M30.1665 42.7334C30.0954 42.5913 30.0435 42.4165 30.0107 42.2062C29.6361 42.6323 29.1494 42.8426 28.5507 42.8426C27.9848 42.8426 27.5145 42.676 27.1427 42.3428C26.7709 42.0096 26.585 41.5862 26.585 41.0781C26.585 40.4526 26.8119 39.9746 27.2657 39.6414C27.7196 39.3082 28.3757 39.1388 29.2342 39.1333H29.945V38.7946C29.945 38.5215 29.8767 38.303 29.74 38.1418C29.6033 37.9779 29.3873 37.896 29.0893 37.896C28.8296 37.896 28.6245 37.9588 28.4769 38.0872C28.3292 38.2128 28.2554 38.3877 28.2554 38.6089H26.7107C26.7107 38.2675 26.8146 37.9506 27.0197 37.6611C27.2274 37.3688 27.52 37.1421 27.8973 36.9782C28.2746 36.8116 28.6983 36.7297 29.1686 36.7297C29.8822 36.7297 30.4481 36.9127 30.8664 37.2787C31.2847 37.6447 31.4952 38.1555 31.4952 38.8165V41.3704C31.4979 41.9303 31.5745 42.3537 31.7249 42.6405V42.7334H30.1665V42.7334ZM28.8897 41.6381C29.1166 41.6381 29.3272 41.5862 29.5213 41.4824C29.7126 41.3786 29.8548 41.2393 29.9478 41.0645V40.0511H29.3709C28.5972 40.0511 28.1871 40.3243 28.1351 40.8678L28.1297 40.9607C28.1297 41.1573 28.198 41.3185 28.332 41.4441C28.4687 41.5753 28.6546 41.6381 28.8897 41.6381Z" fill="white"/>
<path d="M34.1997 36.8389L34.2489 37.4972C34.659 36.9837 35.214 36.7297 35.9112 36.7297C36.6548 36.7297 37.1661 37.0301 37.4449 37.6283C37.8496 37.0301 38.4292 36.7297 39.181 36.7297C39.8071 36.7297 40.2746 36.9154 40.5808 37.2869C40.887 37.6584 41.0401 38.2183 41.0401 38.9667V42.7307H39.49V38.9722C39.49 38.639 39.4271 38.3931 39.2986 38.2402C39.1701 38.0845 38.9432 38.008 38.6206 38.008C38.1585 38.008 37.8359 38.232 37.6582 38.6827L37.6637 42.7307H36.119V38.9777C36.119 38.6362 36.0533 38.3904 35.9221 38.2374C35.7909 38.0845 35.5667 38.008 35.2495 38.008C34.8121 38.008 34.495 38.1937 34.2981 38.5625V42.7307H32.7534V36.8362H34.1997V36.8389Z" fill="white"/>
<path d="M43.7412 36.8389L43.7904 37.4972C44.2005 36.9837 44.7555 36.7297 45.4527 36.7297C46.1963 36.7297 46.7076 37.0301 46.9865 37.6283C47.3911 37.0301 47.9707 36.7297 48.7225 36.7297C49.3486 36.7297 49.8161 36.9154 50.1223 37.2869C50.4285 37.6584 50.5816 38.2183 50.5816 38.9667V42.7307H49.0315V38.9722C49.0315 38.639 48.9686 38.3931 48.8401 38.2402C48.7116 38.0845 48.4847 38.008 48.1621 38.008C47.7 38.008 47.3774 38.232 47.1997 38.6827L47.2052 42.7307H45.6605V38.9777C45.6605 38.6362 45.5948 38.3904 45.4636 38.2374C45.3324 38.0845 45.1082 38.008 44.7911 38.008C44.3536 38.008 44.0365 38.1937 43.8396 38.5625V42.7307H42.2949V36.8362H43.7412V36.8389Z" fill="white"/>
<path d="M54.4962 42.8398C53.6486 42.8398 52.9569 42.5749 52.4238 42.045C51.8907 41.5151 51.6255 40.8076 51.6255 39.9254V39.7724C51.6255 39.1797 51.7376 38.6525 51.9618 38.1855C52.186 37.7184 52.5031 37.3578 52.9159 37.1065C53.326 36.8552 53.7963 36.7269 54.3239 36.7269C55.1141 36.7269 55.7374 36.9809 56.1913 37.4889C56.6451 37.997 56.872 38.7181 56.872 39.6522V40.2941H53.1893C53.2385 40.6793 53.3889 40.9879 53.6404 41.2201C53.892 41.4523 54.2091 41.5697 54.5946 41.5697C55.1906 41.5697 55.6554 41.3512 55.9889 40.9114L56.7463 41.7773C56.5139 42.1105 56.2022 42.3728 55.8058 42.5585C55.4175 42.747 54.9774 42.8398 54.4962 42.8398ZM54.3212 37.9997C54.015 37.9997 53.7662 38.1062 53.5748 38.3166C53.3834 38.5296 53.2631 38.8301 53.2085 39.2261H55.3574V39.1005C55.3492 38.7509 55.2562 38.4804 55.0785 38.2892C54.9008 38.0953 54.6493 37.9997 54.3212 37.9997Z" fill="white"/>
</svg>
