<svg width="1332" height="35" viewBox="0 0 1332 35" fill="none" xmlns="http://www.w3.org/2000/svg">
<path d="M-396 17.4427C-396 17.4427 -359.74 -18.3193 -324.29 17.4427C-288.84 53.2048 -251.85 17.4427 -251.85 17.4427C-251.85 17.4427 -215.71 -18.4908 -180.09 17.4427C-144.47 53.3763 -107.99 17.4427 -107.99 17.4427C-107.99 17.4427 -71.94 -18.5816 -36.23 17.4427C-0.520012 53.4671 36.04 17.4427 36.04 17.4427C36.04 17.4427 72 -18.8338 107.97 17.4427C143.94 53.7193 179.9 17.3822 179.9 17.3822L179.84 17.4427C179.84 17.4427 216.1 -18.3193 251.55 17.4427C287 53.2048 323.99 17.4427 323.99 17.4427C323.99 17.4427 360.13 -18.4908 395.75 17.4427C431.37 53.3763 467.85 17.4427 467.85 17.4427C467.85 17.4427 503.9 -18.5816 539.61 17.4427C575.32 53.4671 611.88 17.4427 611.88 17.4427C611.88 17.4427 647.84 -18.8338 683.81 17.4427C719.78 53.7193 755.74 17.3822 755.74 17.3822C755.74 17.3822 792 -18.3698 827.45 17.3822C862.9 53.1342 899.89 17.3822 899.89 17.3822C899.89 17.3822 936.03 -18.5514 971.65 17.3822C1007.27 53.3157 1043.75 17.3822 1043.75 17.3822C1043.75 17.3822 1079.8 -18.6422 1115.51 17.3822C1151.22 53.4065 1187.78 17.3822 1187.78 17.3822C1187.78 17.3822 1223.74 -18.8944 1259.71 17.3822C1295.68 53.6587 1331.64 17.3217 1331.64 17.3217" stroke="#F0C8B6" stroke-opacity="0.2" stroke-miterlimit="10" stroke-linejoin="round" stroke-dasharray="4 10"/>
</svg>
