<svg width="68" height="58" viewBox="0 0 68 58" fill="none" xmlns="http://www.w3.org/2000/svg">
<path d="M50.471 11.3568C50.6491 11.1766 50.756 10.9242 50.756 10.6718C50.756 10.4194 50.6491 10.167 50.471 9.9867C50.2928 9.80641 50.0435 9.69824 49.7941 9.69824H40.9766C40.7272 9.69824 40.4778 9.80641 40.2997 9.9867C40.1215 10.167 40.0146 10.4194 40.0146 10.6718C40.0146 10.9242 40.1215 11.1766 40.2997 11.3568C40.4778 11.5371 40.7272 11.6453 40.9766 11.6453H49.7941C50.0435 11.6453 50.2928 11.5371 50.471 11.3568Z" fill="white"/>
<path d="M53.3242 11.6453H56.8512C57.1006 11.6453 57.35 11.5371 57.5281 11.3568C57.7063 11.1766 57.8131 10.9422 57.8131 10.6718C57.8131 10.4013 57.7063 10.167 57.5281 9.9867C57.35 9.80641 57.1006 9.69824 56.8512 9.69824H53.3242C53.0748 9.69824 52.8254 9.80641 52.6473 9.9867C52.4692 10.167 52.3623 10.4194 52.3623 10.6718C52.3623 10.9242 52.4692 11.1766 52.6473 11.3568C52.8254 11.5371 53.0748 11.6453 53.3242 11.6453V11.6453Z" fill="white"/>
<path d="M56.8458 14.1864H48.0283C47.7789 14.1864 47.5296 14.2946 47.3514 14.4749C47.1733 14.6551 47.0664 14.9075 47.0664 15.1599C47.0664 15.4123 47.1733 15.6647 47.3514 15.845C47.5296 16.0253 47.7789 16.1335 48.0283 16.1335H56.8458C57.0952 16.1335 57.3446 16.0253 57.5227 15.845C57.7009 15.6647 57.8077 15.4304 57.8077 15.1599C57.8077 14.8895 57.7009 14.6551 57.5227 14.4749C57.3446 14.2946 57.0952 14.1864 56.8458 14.1864V14.1864Z" fill="white"/>
<path d="M52.2327 21.1822C52.4108 21.0019 52.5177 20.7675 52.5177 20.4971C52.5177 20.2267 52.4108 19.9923 52.2327 19.812C52.0546 19.6317 51.8052 19.5236 51.5558 19.5236H42.7383C42.4889 19.5236 42.2395 19.6317 42.0614 19.812C41.8832 19.9923 41.7764 20.2447 41.7764 20.4971C41.7764 20.7495 41.8832 21.0019 42.0614 21.1822C42.2395 21.3625 42.4889 21.4706 42.7383 21.4706H51.5558C51.8052 21.4706 52.0546 21.3625 52.2327 21.1822Z" fill="white"/>
<path d="M56.8465 19.5236H55.083C54.8336 19.5236 54.5842 19.6317 54.4061 19.812C54.228 19.9923 54.1211 20.2447 54.1211 20.4971C54.1211 20.7495 54.228 21.0019 54.4061 21.1822C54.5842 21.3625 54.8336 21.4706 55.083 21.4706H56.8465C57.0959 21.4706 57.3453 21.3625 57.5234 21.1822C57.7015 21.0019 57.8084 20.7675 57.8084 20.4971C57.8084 20.2267 57.7015 19.9923 57.5234 19.812C57.3453 19.6317 57.0959 19.5236 56.8465 19.5236V19.5236Z" fill="white"/>
<path d="M31.0537 50.4761H38.1255C39.2299 50.4761 40.1206 49.5747 40.1206 48.4569V36.7926C40.1206 35.6749 39.2299 34.7734 38.1255 34.7734H31.0537C29.9492 34.7734 29.0586 35.6749 29.0586 36.7926V48.4569C29.0586 49.5747 29.9492 50.4761 31.0537 50.4761ZM30.4658 36.7926C30.4658 36.4681 30.733 36.1977 31.0537 36.1977H38.1255C38.4461 36.1977 38.7133 36.4681 38.7133 36.7926V48.4569C38.7133 48.7815 38.4461 49.0519 38.1255 49.0519H31.0537C30.733 49.0519 30.4658 48.7815 30.4658 48.4569V36.7926Z" fill="white"/>
<path d="M65.4158 1.87495C64.2045 0.685077 62.5835 0.0180283 60.8913 0H27.26C24.3208 0 21.9695 2.25354 21.5064 5.30033C20.2951 5.46259 19.1016 5.75104 17.9615 6.23781C15.3608 7.31951 13.152 9.1584 11.5844 11.5201C10.0169 13.8818 9.19747 16.6402 9.19747 19.4886C9.19747 22.3371 9.94562 24.807 11.3529 27.0605C11.1747 27.1867 10.9966 27.3129 10.8541 27.4752L1.57344 36.868C0.932164 37.517 0.558087 38.4184 0.540274 39.3379H0.522461V39.3919C0.522461 40.095 0.718406 40.7801 1.1103 41.3751C1.50218 41.97 2.03658 42.4207 2.69567 42.6911C3.12318 42.8714 3.58632 42.9616 4.04947 42.9616C4.28104 42.9616 4.51261 42.9435 4.72637 42.8894C5.42108 42.7452 6.02673 42.4207 6.52549 41.9159L15.7883 32.5231C15.9843 32.3429 16.1268 32.1085 16.2515 31.8741C17.8368 32.8116 19.5825 33.4246 21.3995 33.677V51.1284C21.3639 51.9216 21.5064 52.7149 21.7736 53.454C22.0586 54.2112 22.4861 54.8783 23.0205 55.4552C23.5727 56.0321 24.214 56.4828 24.9443 56.7893C25.6568 57.0958 26.4228 57.24 27.1888 57.24H44.9485C45.1979 57.24 45.4294 57.1859 45.661 57.0777C45.8926 56.9696 46.0885 56.8253 46.2488 56.6451L66.4312 36.3451C66.4312 36.3451 66.5915 36.1649 66.6983 36.0567C67.0012 35.7502 67.3396 35.4077 67.3396 35.0291V6.40006C67.2862 4.68737 66.5737 3.08285 65.3624 1.87495H65.4158ZM14.3277 30.6842V30.7203C14.3277 30.7203 14.2386 30.8465 14.1852 30.9006L4.92231 40.2753C4.81543 40.3835 4.67293 40.4736 4.53042 40.5457C4.38792 40.5998 4.2276 40.6359 4.06728 40.6359C3.90696 40.6359 3.76446 40.5998 3.60414 40.5457C3.46163 40.4736 3.31913 40.3835 3.21225 40.2753C2.98068 40.041 2.85598 39.7345 2.85598 39.41C2.85598 39.0855 2.98068 38.779 3.21225 38.5446L12.4751 29.1699C12.4751 29.1699 12.5642 29.0797 12.6176 29.0437H12.7245C12.7245 29.0437 12.7779 29.0797 12.9204 29.1699C13.0095 29.278 13.0986 29.3682 13.1876 29.4763C12.8135 29.1518 12.6888 29.1158 12.6888 29.1158H12.6532C12.6532 29.1158 12.5642 29.1699 12.5285 29.2059L3.24787 38.5626C3.03412 38.779 2.92724 39.0855 2.92724 39.3919C2.92724 39.6984 3.05193 39.9869 3.24787 40.2212C3.35475 40.3294 3.47945 40.4196 3.62195 40.4736C3.76446 40.5277 3.90696 40.5638 4.06728 40.5638C4.20978 40.5638 4.3701 40.5277 4.51261 40.4736C4.65511 40.4196 4.77981 40.3294 4.88669 40.2212L14.1495 30.8465C14.1495 30.8465 14.2386 30.7564 14.2564 30.7023C14.2564 30.7023 14.2564 30.558 13.9536 30.2155C14.0426 30.3057 14.1317 30.3958 14.2386 30.4679C14.3277 30.6121 14.3277 30.6842 14.3277 30.7023V30.6842ZM13.5261 29.8369C14.0783 30.3597 14.1673 30.6121 14.1852 30.6662C14.1673 30.7023 14.1317 30.7383 14.0961 30.7744L4.83325 40.1491C4.72637 40.2573 4.61949 40.3294 4.47698 40.3835C4.35229 40.4376 4.20978 40.4556 4.06728 40.4556C3.92477 40.4556 3.80008 40.4376 3.67539 40.3835C3.53288 40.3294 3.42601 40.2393 3.31913 40.1491C3.12318 39.9328 3.0163 39.6624 3.0163 39.3739C3.0163 39.0855 3.12318 38.815 3.31913 38.5987L12.582 29.2239C12.582 29.2239 12.6354 29.1699 12.671 29.1338C12.671 29.1338 12.8848 29.2059 13.5261 29.8189V29.8369ZM25.1759 52.0478C25.0868 51.7594 25.0334 51.4529 25.069 51.1284V33.695C27.26 33.4246 29.362 32.6674 31.2323 31.4234C33.5837 29.8549 35.3828 27.6194 36.4694 24.9873C36.4872 24.9332 36.505 24.8791 36.5229 24.807C36.5229 24.8431 36.505 24.8791 36.505 24.9332C36.505 25.1856 36.6119 25.438 36.7901 25.6183C36.9682 25.7986 37.2176 25.9067 37.467 25.9067H43.6303C43.8797 25.9067 44.1291 25.7986 44.3072 25.6183C44.4853 25.438 44.5922 25.1856 44.5922 24.9332C44.5922 24.6808 44.4853 24.4284 44.3072 24.2481C44.1291 24.0678 43.8797 23.9597 43.6303 23.9597H37.467C37.2176 23.9597 36.9682 24.0678 36.7901 24.2481C36.7366 24.3022 36.6832 24.3924 36.6475 24.4645C37.0038 23.4729 37.271 22.4633 37.3957 21.4357H39.2126C39.462 21.4357 39.7114 21.3275 39.8895 21.1472C40.0677 20.967 40.1746 20.7146 40.1746 20.4622C40.1746 20.2098 40.0677 19.9574 39.8895 19.7771C39.7114 19.5968 39.462 19.4886 39.2126 19.4886H37.5204C37.5204 18.5512 37.4669 17.6137 37.2888 16.6762C37.2354 16.4419 37.1819 16.2255 37.1285 15.9911C37.2354 16.0272 37.3423 16.0633 37.4491 16.0633H44.5031C44.7525 16.0633 45.0019 15.9551 45.18 15.7748C45.3582 15.5945 45.4651 15.3421 45.4651 15.0897C45.4651 14.8373 45.3582 14.5849 45.18 14.4046C45.0019 14.2244 44.7525 14.1162 44.5031 14.1162H37.4491C37.1998 14.1162 36.9504 14.2244 36.7722 14.4046C36.7366 14.4407 36.701 14.4948 36.6832 14.5489C36.2913 13.5032 35.8103 12.5117 35.2047 11.5922H37.4491C37.6985 11.5922 37.9479 11.4841 38.126 11.3038C38.3042 11.1235 38.411 10.8891 38.411 10.6187C38.411 10.3483 38.3042 10.1139 38.126 9.93362C37.9479 9.75334 37.6985 9.64516 37.4491 9.64516H33.7262C33.6193 9.53699 33.5302 9.39277 33.4234 9.2846C31.4283 7.26542 28.9166 5.9133 26.1556 5.35442C25.8528 5.30033 25.5499 5.28231 25.2293 5.24625C25.5143 4.36286 26.1734 3.65975 27.2422 3.65975H60.8734C61.586 3.69581 62.2629 3.98426 62.7795 4.47103C63.296 4.9578 63.6345 5.62484 63.7057 6.34598V33.8753H49.3305C46.1954 33.8753 44.3072 36.7057 44.3072 39.428V53.4L44.2003 53.4901H27.2244C26.9216 53.4901 26.6366 53.436 26.3694 53.3098C26.1022 53.1836 25.835 53.0033 25.639 52.787C25.4253 52.5526 25.2828 52.3002 25.1759 52.0118V52.0478ZM12.5285 24.0138C11.6379 21.8323 11.4063 19.4706 11.8694 17.163C12.3326 14.8554 13.437 12.7641 15.0758 11.0874C16.7146 9.42883 18.7988 8.31107 21.0788 7.84233C21.1857 7.8243 21.3104 7.80627 21.4351 7.78825H21.5776C22.1833 7.68008 22.7711 7.60796 23.3767 7.60796C23.9111 7.60796 24.4277 7.66205 24.9621 7.73416H25.1046C26.0487 7.89642 26.975 8.14881 27.8657 8.50938C28.6494 8.83389 29.3798 9.2846 30.0745 9.77136L30.1457 9.82545L30.217 9.87953C30.8583 10.3483 31.4817 10.8711 32.0339 11.4841C32.0518 11.5021 32.0696 11.5381 32.0874 11.5562C32.1052 11.5742 32.123 11.6103 32.1408 11.6283C32.4793 12.0249 32.8177 12.4396 33.1027 12.8903C33.3699 13.3049 33.6015 13.7376 33.8153 14.1703C33.8153 14.1883 33.8509 14.2244 33.8509 14.2424C33.8509 14.2604 33.8865 14.2965 33.8865 14.3145C34.1181 14.7832 34.2962 15.27 34.4565 15.7568C34.4565 15.7748 34.4743 15.7928 34.4743 15.8289C34.4743 15.8469 34.4922 15.8649 34.4922 15.901C34.8484 17.0548 35.0444 18.2627 35.0444 19.4886V19.5247C35.0444 19.5247 35.0444 19.5788 35.0444 19.5968V19.6689C35.0444 20.2278 34.9731 20.7687 34.9019 21.3095V21.4537C34.7415 22.3371 34.4922 23.2025 34.1537 24.0318C34.1537 24.0498 34.1359 24.0678 34.1181 24.1039C34.1181 24.1219 34.1003 24.14 34.0824 24.176C33.8509 24.7349 33.5659 25.2757 33.2452 25.7805C33.2452 25.7986 33.2096 25.8346 33.2096 25.8526C33.2096 25.8707 33.174 25.9067 33.174 25.9248C32.7287 26.6098 32.2121 27.2589 31.6242 27.8538C29.8251 29.6747 27.545 30.8104 25.0868 31.189H24.9443C24.4277 31.2792 23.8933 31.3333 23.3589 31.3333C22.7533 31.3333 22.1654 31.2792 21.5598 31.189C21.542 31.189 21.5064 31.189 21.4885 31.189C21.4707 31.189 21.4351 31.189 21.4173 31.189C19.7963 30.9186 18.2287 30.3057 16.8393 29.3682C14.8977 28.0521 13.4192 26.2132 12.5285 24.0498V24.0138ZM46.231 51.5611V39.464C46.231 37.7153 47.3176 35.8403 49.3483 35.8403H62.156L46.231 51.5611Z" fill="white"/>
<path d="M19.6181 23.0765C20.1703 22.716 20.776 22.4636 21.3994 22.2833H21.4707C21.4707 22.2833 21.5241 22.2472 21.5419 22.2472C22.6464 21.9588 23.8042 21.9408 24.9264 22.1931H24.9977L25.0689 22.2292C25.7993 22.4095 26.5118 22.6799 27.1531 23.0946C28.2931 23.8157 29.2016 24.8433 29.8072 26.0692L30.3773 25.7808L30.502 25.7087L31.072 25.4202C30.3594 23.9599 29.255 22.734 27.9012 21.8686C27.3847 21.5441 26.8324 21.2917 26.2624 21.0934C27.6162 20.1559 28.5069 18.5875 28.5069 16.8027C28.5069 14.5491 27.064 12.6381 25.0689 11.935C25.0511 11.935 25.0155 11.935 24.9977 11.917H24.9264C24.4277 11.7367 23.9289 11.6285 23.3767 11.6285C22.7354 11.6285 22.112 11.7547 21.5419 11.9891C21.5241 11.9891 21.4885 11.9891 21.4707 12.0071C21.4529 12.0071 21.4172 12.0071 21.3994 12.0252C19.5647 12.8004 18.2643 14.6573 18.2643 16.8027C18.2643 18.5875 19.155 20.1559 20.5088 21.0934C19.9388 21.2917 19.3865 21.5441 18.87 21.8686C17.5162 22.734 16.4117 23.9599 15.6992 25.4202L16.2692 25.7087L16.3405 25.7447L16.4117 25.7808L16.9818 26.0692C17.5874 24.8433 18.5137 23.8157 19.6359 23.0946L19.6181 23.0765ZM19.6716 16.8027C19.6716 15.4686 20.3663 14.3148 21.3994 13.6477C21.4172 13.6477 21.4529 13.6297 21.4707 13.6117C21.4885 13.6117 21.5241 13.5936 21.5419 13.5756C22.0763 13.2511 22.6998 13.0708 23.3767 13.0708C23.9289 13.0708 24.4455 13.197 24.9264 13.4133C24.9442 13.4133 24.9799 13.4314 24.9977 13.4494C25.0155 13.4494 25.0511 13.4674 25.0689 13.4855C26.2624 14.1165 27.0818 15.3604 27.0818 16.8027C27.0818 18.2449 26.2624 19.5069 25.0689 20.1199C25.0511 20.1199 25.0155 20.1379 24.9977 20.1559C24.9799 20.1559 24.9442 20.192 24.9264 20.192C24.4633 20.4083 23.9289 20.5345 23.3767 20.5345C22.6998 20.5345 22.0763 20.3362 21.5419 20.0297C21.5241 20.0297 21.4885 20.0117 21.4707 19.9937C21.4529 19.9937 21.4172 19.9757 21.3994 19.9576C20.3663 19.2906 19.6716 18.1368 19.6716 16.8027V16.8027Z" fill="white"/>
</svg>
