<svg width="58" height="49" viewBox="0 0 58 49" fill="none" xmlns="http://www.w3.org/2000/svg">
<path d="M58 23.1939C58 20.7694 58 18.34 58 15.9155C58 13.5521 56.7722 12.0883 54.6661 12.0375C52.5646 11.9867 50.463 11.9867 48.3615 12.0426C46.3198 12.0985 45.0184 13.5623 45.0138 15.8291C44.9954 25.603 44.9954 35.3718 45.0138 45.1457C45.0138 47.4938 46.3979 48.9729 48.5179 48.9932C50.4354 49.0085 52.353 48.9932 54.266 48.9932C56.7308 48.9932 58 47.6158 58 44.922C58 40.1037 58 35.2854 58 30.4671C58 28.0427 58 25.6132 58 23.1888V23.1939ZM54.7029 45.3032H48.3615V15.6614H54.7029V45.3032Z" fill="white"/>
<path d="M27.998 20.8322C27.9934 18.5087 26.6506 17.0352 24.5168 17.0151C22.5072 16.995 20.4976 16.995 18.488 17.0151C16.3589 17.0352 15.0115 18.5087 15.0069 20.8322C14.9977 28.9493 14.9977 37.0613 15.0069 45.1784C15.0069 47.5018 16.3681 48.9754 18.488 48.9905C20.4654 49.0056 22.4474 49.0005 24.4248 48.9905C26.669 48.9804 27.9934 47.532 27.998 45.0728C28.0026 41.0846 27.998 37.0915 27.998 33.1034C27.998 29.0096 28.0026 24.9209 27.998 20.8272V20.8322ZM24.664 45.3645H18.3363V20.6713H24.664V45.3695V45.3645Z" fill="white"/>
<path d="M6.06422 18.8691C7.48233 19.2815 9.0148 18.3671 9.36247 16.7868C9.4997 16.1507 9.7879 15.8326 10.2728 15.5394C13.1868 13.8149 16.0871 12.0656 18.9827 10.3063C19.582 9.94356 20.1081 9.60562 20.8446 10.0429C21.2014 10.2566 21.7458 10.0777 22.1987 10.1274C22.6515 10.1771 23.173 10.1573 23.5344 10.4008C26.8464 12.647 30.1355 14.9281 33.4063 17.234C33.7631 17.4875 34.0605 17.9099 34.2709 18.3224C34.8793 19.5151 35.9543 20.1562 37.1757 19.9674C38.3148 19.7934 39.1931 18.8194 39.4859 17.5471C39.5865 17.1048 39.8152 16.6178 40.1217 16.3246C43.4108 13.154 46.7274 10.0181 50.0348 6.87231C50.6752 6.26601 51.2425 5.45596 52.1208 5.96286C53.699 5.95293 54.8655 4.79003 54.989 3.2544C55.1171 1.67902 54.1107 0.28752 52.6652 0.0390375C51.2562 -0.204476 49.8884 0.709941 49.6231 2.26047C49.4858 3.06556 49.1062 3.54761 48.5892 4.03961C45.2956 7.15558 42.0065 10.2765 38.7357 13.4124C38.205 13.9193 37.743 14.297 36.9562 14.0634C36.5582 13.9441 36.0733 14.2522 35.6204 14.287C35.2407 14.3119 34.7741 14.3566 34.4859 14.1628C31.334 12.0209 28.1959 9.84913 25.0852 7.64261C24.7238 7.38419 24.4219 6.89716 24.2755 6.44492C23.8592 5.14784 22.9306 4.27815 21.7183 4.20858C20.5655 4.14397 19.5363 4.90433 19.0193 6.09705C18.8501 6.48468 18.571 6.90213 18.2417 7.10589C15.0578 9.05896 11.8602 10.9872 8.64426 12.8707C8.28745 13.0794 7.77052 13.1142 7.36339 13.0297C5.89496 12.7365 4.42653 13.6807 4.08344 15.2164C3.71747 16.8464 4.58664 18.4317 6.07794 18.8641L6.06422 18.8691Z" fill="white"/>
<path d="M9.50415 23.0131C7.52689 22.9932 5.54503 22.9982 3.56776 23.0131C1.3192 23.028 0.0132839 24.4432 0.00408737 26.8863C-0.00510921 29.9252 0.00408737 32.9642 0.00408737 36.0031C0.00408737 39.0768 -0.00510921 42.1456 0.00408737 45.2193C0.0132839 47.5233 1.34219 48.9633 3.48039 48.9832C5.52203 49.0031 7.56368 49.008 9.60072 48.9832C11.6148 48.9584 12.9851 47.4836 12.9897 45.3186C13.0034 39.1414 13.0034 32.9642 12.9897 26.787C12.9851 24.4978 11.6194 23.0379 9.49955 23.023L9.50415 23.0131ZM9.6513 45.3831H3.29186V26.6132H9.6513V45.3831Z" fill="white"/>
<path d="M43 34.4027C43 33.1896 43 31.9765 42.9954 30.7634C42.9862 28.5076 41.6439 27.0388 39.5661 27.0188C37.5251 26.9937 35.4841 26.9937 33.4477 27.0188C31.3837 27.0439 30.023 28.5277 30.0138 30.7834C29.9954 35.6058 29.9954 40.4231 30.0138 45.2454C30.023 47.5012 31.3883 48.9649 33.4615 48.985C35.5025 49.005 37.5435 49.005 39.5799 48.985C41.6485 48.9649 42.9816 47.4911 42.9954 45.2253C43 44.0273 43 42.8342 43 41.6362C43 40.4381 43 39.2451 43 38.047C43 36.8339 43 35.6208 43 34.4077V34.4027ZM39.6856 45.4058C39.2122 45.4058 38.8122 45.4058 38.4169 45.4058C36.7528 45.4058 35.0888 45.4058 33.3557 45.4058V30.6581H39.6902V45.4058H39.6856Z" fill="white"/>
</svg>
