<svg width="19" height="19" viewBox="0 0 19 19" fill="none" xmlns="http://www.w3.org/2000/svg">
<path d="M3.5625 0C2.25254 0 1.1875 1.06504 1.1875 2.375V16.625C1.1875 17.935 2.25254 19 3.5625 19H14.25C15.56 19 16.625 17.935 16.625 16.625V2.375C16.625 1.06504 15.56 0 14.25 0H3.5625ZM7.71875 10.6875H10.0938C11.734 10.6875 13.0625 12.016 13.0625 13.6562C13.0625 13.9828 12.7953 14.25 12.4688 14.25H5.34375C5.01719 14.25 4.75 13.9828 4.75 13.6562C4.75 12.016 6.07852 10.6875 7.71875 10.6875ZM11.2812 7.125C11.2812 8.43496 10.2162 9.5 8.90625 9.5C7.59629 9.5 6.53125 8.43496 6.53125 7.125C6.53125 5.81504 7.59629 4.75 8.90625 4.75C10.2162 4.75 11.2812 5.81504 11.2812 7.125ZM19 2.96875C19 2.64219 18.7328 2.375 18.4062 2.375C18.0797 2.375 17.8125 2.64219 17.8125 2.96875V5.34375C17.8125 5.67031 18.0797 5.9375 18.4062 5.9375C18.7328 5.9375 19 5.67031 19 5.34375V2.96875ZM18.4062 7.125C18.0797 7.125 17.8125 7.39219 17.8125 7.71875V10.0938C17.8125 10.4203 18.0797 10.6875 18.4062 10.6875C18.7328 10.6875 19 10.4203 19 10.0938V7.71875C19 7.39219 18.7328 7.125 18.4062 7.125ZM19 12.4688C19 12.1422 18.7328 11.875 18.4062 11.875C18.0797 11.875 17.8125 12.1422 17.8125 12.4688V14.8438C17.8125 15.1703 18.0797 15.4375 18.4062 15.4375C18.7328 15.4375 19 15.1703 19 14.8438V12.4688Z" fill="black" fill-opacity="0.4"/>
</svg>
