<svg width="32" height="33" viewBox="0 0 32 33" fill="#fff" xmlns="http://www.w3.org/2000/svg">
<path d="M24.7018 22.5614C24.3614 22.238 24.32 21.873 24.5776 21.4664C26.4682 18.4861 27.103 15.2425 26.5096 11.7493C25.4056 5.27592 19.7339 0.646118 13.3583 0.646118C12.6545 0.646118 11.9369 0.701565 11.2331 0.812458C4.74717 1.87981 0 7.47993 0 14.1058C0 17.696 1.21439 20.8149 3.65698 23.407C6.26516 26.1793 9.75654 27.6209 13.3031 27.6209C15.6767 27.6209 18.0779 26.9833 20.2721 25.6665C20.5895 25.4724 20.9207 25.1397 21.2519 25.1397C21.5969 25.1397 21.8177 25.5971 22.0661 25.8744C22.1765 25.9991 22.2731 26.0546 22.3559 26.0546C22.4662 26.0546 22.5628 25.9714 22.687 25.8467C23.3494 25.1536 24.0256 24.4743 24.7156 23.809C25.3504 23.1852 25.3642 23.1852 24.7156 22.5614H24.7018ZM23.239 23.1575C22.9354 23.4486 22.6594 23.7397 22.3834 24.0169C22.0936 23.809 21.7211 23.6426 21.2381 23.6426C20.5343 23.6426 20.0237 24.0169 19.6925 24.2526C19.6235 24.2941 19.5545 24.3496 19.5131 24.3773C17.6087 25.514 15.4559 26.11 13.3031 26.11C10.0463 26.11 7.01035 24.7793 4.73337 22.3674C2.56678 20.0663 1.47659 17.2801 1.49039 14.0919C1.49039 8.18687 5.69936 3.22439 11.4815 2.2818C12.1025 2.18476 12.7373 2.12932 13.3721 2.12932C16.1321 2.12932 18.8231 3.1135 20.9621 4.90165C23.1286 6.70367 24.5776 9.2265 25.0468 11.985C25.585 15.1316 25.0192 17.9594 23.3218 20.6485C22.687 21.6604 22.6318 22.3674 23.2252 23.1436L23.239 23.1575Z" fill="white"/>
<path d="M31.1161 29.1875C29.3253 27.4291 27.5345 25.6841 25.7438 23.9257C25.6344 23.8192 25.5524 23.7659 25.4704 23.7659C25.3883 23.7659 25.3063 23.8192 25.197 23.9257C24.5818 24.5518 23.9256 25.1512 23.2968 25.7773C22.7774 26.2835 22.7774 26.7897 23.2968 27.2959C24.9919 28.9477 26.6186 30.6528 28.3684 32.238C28.7375 32.571 29.1886 32.7442 29.462 32.7575H29.503C30.5556 32.7575 31.2938 32.2912 31.6219 31.5453C32.0183 30.6528 31.7859 29.8668 31.1024 29.2008L31.1161 29.1875ZM30.3779 31.0124C30.3369 31.1057 30.2139 31.3987 29.5577 31.4254C29.503 31.4121 29.4073 31.3588 29.298 31.2655C28.136 30.2132 26.9877 29.0676 25.8941 27.9753C25.4157 27.4957 24.9372 27.0162 24.4451 26.5499L24.8552 26.1503C25.0603 25.9638 25.2516 25.764 25.4567 25.5642C26.0445 26.137 26.6323 26.7231 27.2201 27.2959C28.1907 28.2417 29.1613 29.1875 30.1319 30.1466C30.5283 30.5462 30.4736 30.7727 30.3642 31.0258L30.3779 31.0124Z" fill="white"/>
<path d="M12.325 10.9243H12.2954C11.807 10.9243 11.3187 10.9389 10.8156 10.9389C10.3125 10.9389 9.85378 10.9389 9.38026 10.9243H9.33587C8.99552 10.9243 8.90674 11.0557 8.90674 11.406C8.90674 15.0114 8.90674 18.6022 8.90674 22.2076C8.90674 22.5141 9.01032 22.6747 9.29147 22.8061C10.2385 23.244 11.2299 23.5359 12.251 23.7403C12.325 23.7549 12.3989 23.7695 12.4433 23.7695C12.6653 23.7695 12.7245 23.6381 12.7245 23.3462C12.7097 21.361 12.7245 19.3758 12.7245 17.4053C12.7245 15.4347 12.7245 13.4058 12.7245 11.406C12.7245 11.0849 12.6505 10.9535 12.325 10.9535V10.9243ZM11.6147 17.3761V18.865C11.6147 20.0619 11.6147 21.2442 11.6147 22.4704C11.0524 22.3244 10.5197 22.1492 10.0313 21.9303C10.0313 18.646 10.0313 15.3471 10.0313 12.0337C10.2977 12.0337 10.5641 12.0337 10.8156 12.0337C11.0672 12.0337 11.3483 12.0337 11.6147 12.0337C11.6147 13.3766 11.6147 14.7195 11.6147 16.0478V17.3761Z" fill="white"/>
<path d="M21.2919 9.6535H21.2771C20.76 9.6535 20.2428 9.6535 19.7109 9.6535C19.2381 9.6535 18.7801 9.6535 18.3072 9.63892H18.2629C17.9231 9.63892 17.8344 9.77014 17.8344 10.1201C17.8492 12.103 17.8344 14.0859 17.8344 16.0688C17.8344 18.0517 17.8344 20.0346 17.8344 22.0175C17.8344 22.1633 17.7606 22.3674 17.8935 22.4549C17.9231 22.4695 17.9674 22.4841 17.997 22.4841C18.1299 22.4841 18.2334 22.3383 18.3516 22.2654C19.7405 21.2739 20.7452 19.9763 21.4692 18.4599C21.5726 18.2412 21.6317 18.0079 21.6317 17.7601C21.6317 15.194 21.6317 12.6133 21.6317 10.0472C21.6317 9.75556 21.5431 9.6535 21.2623 9.6535H21.2919ZM20.5531 17.7601C20.5531 17.7601 20.5531 17.8767 20.494 17.9934C20.0655 18.8828 19.5632 19.6409 18.9574 20.2825C18.9574 19.2618 18.9574 18.2558 18.9574 17.2352V14.5816C18.9574 13.3131 18.9574 12.0446 18.9574 10.747C19.2085 10.747 19.4597 10.747 19.7109 10.747C19.9916 10.747 20.2724 10.747 20.5531 10.747C20.5531 12.7882 20.5531 14.8295 20.5531 16.8707V17.7455V17.7601Z" fill="white"/>
<path d="M16.3046 16.0758H16.2947C15.9482 16.0758 15.6017 16.0758 15.2552 16.0758C14.9483 16.0758 14.6513 16.0758 14.3444 16.0605H14.3048C14.0672 16.0605 13.988 16.1674 13.9979 16.5794C14.0177 17.6935 13.9979 18.7924 13.9979 19.9065C13.9979 21.0206 13.9979 22.1957 13.9979 23.3403C13.9979 23.6303 14.0276 23.7676 14.2157 23.7676C14.2355 23.7676 14.2454 23.7676 14.2652 23.7676C14.978 23.7066 15.6611 23.4166 16.3145 23.0046C16.4828 22.8977 16.5422 22.7604 16.5422 22.4857C16.5422 20.4864 16.5422 18.4871 16.5422 16.4879C16.5422 16.1826 16.4828 16.0911 16.2947 16.0911L16.3046 16.0758ZM14.7503 22.5315C14.7503 21.9515 14.7503 21.3868 14.7503 20.8069V18.9755C14.7503 18.3956 14.7503 17.8156 14.7503 17.2357C14.9186 17.2357 15.0869 17.2357 15.2453 17.2357C15.4334 17.2357 15.6215 17.2357 15.7997 17.2357C15.7997 18.8534 15.7997 20.4711 15.7997 22.0889C15.4334 22.3025 15.0869 22.4399 14.7404 22.5315H14.7503Z" fill="white"/>
<path d="M7.25449 14.7869C6.70933 14.7869 6.16417 14.7869 5.61901 14.7869C5.17699 14.7869 4.73497 14.7869 4.30768 14.7751H4.26348C3.89513 14.7751 3.8362 14.9045 3.82146 15.1868C3.77726 16.9748 4.63183 18.4805 5.9579 19.8685C6.41465 20.3508 6.93034 20.786 7.63758 21.1977C7.63758 19.0922 7.63758 17.0689 7.63758 15.0575C7.63758 14.8222 7.50497 14.7869 7.26923 14.7869H7.25449ZM6.51779 19.0098C5.53061 17.8923 5.01492 16.8219 4.92651 15.6809C5.16226 15.6809 5.38327 15.6809 5.61901 15.6809C5.92843 15.6809 6.22311 15.6809 6.53252 15.6809C6.53252 16.7866 6.53252 17.8923 6.53252 19.0098H6.51779Z" fill="white"/>
</svg>
