<svg width="53" height="58" viewBox="0 0 53 58" fill="none" xmlns="http://www.w3.org/2000/svg">
<path d="M49.3145 4.71935H41.5889V1.56628C41.5889 0.79724 40.9566 0.166626 40.1856 0.166626C39.4146 0.166626 38.7824 0.79724 38.7824 1.56628V4.71935H14.2176V1.56628C14.2176 0.79724 13.5854 0.166626 12.8144 0.166626C12.0434 0.166626 11.4111 0.79724 11.4111 1.56628V4.71935H3.68548C1.64999 4.71935 0 6.3651 0 8.39537V53.9073C0 55.9375 1.64999 57.5833 3.68548 57.5833H49.3145C51.35 57.5833 53 55.9375 53 53.9073V8.39537C53 6.3651 51.35 4.71935 49.3145 4.71935ZM3.68548 7.51867H11.4111V10.6717C11.4111 11.4408 12.0434 12.0714 12.8144 12.0714C13.5854 12.0714 14.2176 11.4408 14.2176 10.6717V7.51867H38.7824V10.6717C38.7824 11.4408 39.4146 12.0714 40.1856 12.0714C40.9566 12.0714 41.5889 11.4408 41.5889 10.6717V7.51867H49.3145C49.7926 7.51867 50.1935 7.91857 50.1935 8.39537V18.3775H2.80652V8.39537C2.80652 7.91857 3.20745 7.51867 3.68548 7.51867ZM49.3145 54.784H3.68548C3.20745 54.784 2.80652 54.3841 2.80652 53.9073V21.1769H50.1935V53.9073C50.1935 54.3841 49.7926 54.784 49.3145 54.784Z" fill="white"/>
<path d="M24.6096 38.0802C24.0698 37.265 23.3297 36.6036 22.4661 36.1422C22.3582 36.0807 22.2502 36.0345 22.1423 35.9884L25.3189 32.0355C25.6581 31.6202 25.7198 31.0358 25.4885 30.559C25.2572 30.0668 24.7638 29.7592 24.224 29.7592H16.2363C15.4652 29.7592 14.833 30.3898 14.833 31.1588C14.833 31.9279 15.4652 32.5585 16.2363 32.5585H21.2942L18.5493 35.973C18.2101 36.3883 18.1484 36.9728 18.3797 37.4496C18.611 37.9418 19.1045 38.2494 19.6442 38.2494C20.1839 38.2494 20.6774 38.3724 21.14 38.6185C21.6026 38.8646 21.9881 39.2184 22.2811 39.649C22.5741 40.0797 22.7437 40.5719 22.8054 41.0948C22.8516 41.6024 22.7745 42.1253 22.5741 42.6175C22.3736 43.0943 22.0652 43.525 21.6643 43.848C21.2633 44.171 20.7853 44.4017 20.2764 44.5094C19.7675 44.617 19.2432 44.5863 18.7344 44.4325C18.2409 44.2787 17.7937 44.0172 17.4236 43.648C16.8685 43.1097 15.9895 43.1097 15.4344 43.648C14.8793 44.2018 14.8793 45.0785 15.4344 45.6322C16.1283 46.3243 16.9919 46.8319 17.9171 47.1087C18.4876 47.2779 19.0736 47.3702 19.6596 47.3702C20.0451 47.3702 20.446 47.3394 20.8161 47.2625C21.7722 47.078 22.682 46.6473 23.4376 46.0321C24.1932 45.4168 24.7946 44.617 25.1647 43.7096C25.5348 42.8021 25.689 41.8177 25.5965 40.8487C25.5039 39.8797 25.1647 38.9415 24.625 38.1263L24.6096 38.0802Z" fill="white"/>
<path d="M36.2548 29.8981C35.7768 29.6674 35.2062 29.7135 34.7899 30.0365L30.2254 33.4511C29.6086 33.9125 29.4852 34.7892 29.9479 35.4044C30.4105 36.0197 31.2894 36.1427 31.9063 35.6813L34.2193 33.9433V45.9403C34.2193 46.7094 34.8516 47.34 35.6226 47.34C36.3936 47.34 37.0258 46.7094 37.0258 45.9403V31.1439C37.0258 30.621 36.7328 30.1288 36.2548 29.8981Z" fill="white"/>
</svg>
