<svg width="24" height="32" viewBox="0 0 24 32" fill="none" xmlns="http://www.w3.org/2000/svg">
<path d="M20 29C20.55 29 21 28.55 21 28V26H24V28C24 30.2062 22.2062 32 20 32H4C1.79063 32 0 30.2062 0 28V26H3V28C3 28.55 3.4475 29 4 29H20ZM16 10C14.8937 10 14 9.10625 14 8V3H4C3.4475 3 3 3.4475 3 4V12H0V4C0 1.79063 1.79063 0 4 0H14.3438C15.4062 0 16.4188 0.421438 17.1688 1.17188L22.8312 6.83125C23.5812 7.58125 24 8.59375 24 9.65625V12H21V10H16Z" fill="white"/>
<path d="M0.975911 16.8354H4.29613V15.4533H0.975911V16.8354ZM0.975911 19.8871H4.19006V18.5713H0.975911V19.8871ZM0 15.4533V23.193H1.46387V15.4533H0Z" fill="white"/>
<path d="M5.97025 21.435H9.89511L9.71478 20.1856H6.15058L5.97025 21.435ZM7.91146 17.9632L9.02528 20.65L9.00406 21.048L9.95876 23.193H11.6772L7.91146 15L4.14572 23.193H5.85356L6.82948 20.9817L6.79765 20.6279L7.91146 17.9632Z" fill="white"/>
<path d="M13.3815 19.3232C13.3815 18.8072 13.4911 18.3612 13.7103 17.9853C13.9366 17.6094 14.2301 17.3219 14.5908 17.1229C14.9514 16.9165 15.3439 16.8133 15.7682 16.8133C16.1218 16.8133 16.4365 16.8612 16.7123 16.957C16.9881 17.0529 17.2356 17.1819 17.4549 17.344C17.6812 17.5062 17.8756 17.6831 18.0383 17.8747V16.0946C17.7342 15.844 17.4018 15.6487 17.0412 15.5086C16.6876 15.3686 16.2385 15.2985 15.694 15.2985C15.1282 15.2985 14.6014 15.3944 14.1134 15.586C13.6325 15.7777 13.2118 16.0541 12.8511 16.4153C12.4975 16.7764 12.2217 17.204 12.0237 17.6978C11.8328 18.1843 11.7373 18.7261 11.7373 19.3232C11.7373 19.9202 11.8328 20.4657 12.0237 20.9596C12.2217 21.4461 12.4975 21.8699 12.8511 22.2311C13.2118 22.5923 13.6325 22.8687 14.1134 23.0604C14.6014 23.252 15.1282 23.3478 15.694 23.3478C16.2385 23.3478 16.6876 23.2778 17.0412 23.1377C17.4018 22.9977 17.7342 22.8024 18.0383 22.5517V20.7716C17.8756 20.9633 17.6812 21.1402 17.4549 21.3023C17.2356 21.4645 16.9881 21.5935 16.7123 21.6893C16.4365 21.7851 16.1218 21.8331 15.7682 21.8331C15.3439 21.8331 14.9514 21.7335 14.5908 21.5345C14.2301 21.3281 13.9366 21.037 13.7103 20.661C13.4911 20.2777 13.3815 19.8318 13.3815 19.3232Z" fill="white"/>
<path d="M18.484 16.8796H20.4782V23.193H21.9951V16.8796H24V15.4533H18.484V16.8796Z" fill="white"/>
</svg>
