<svg width="71" height="51" viewBox="0 0 71 51" fill="none" xmlns="http://www.w3.org/2000/svg">
<path d="M35.0528 50.0824C26.6353 50.0824 21.336 48.5192 21.1197 48.4359C18.3619 47.7481 17.3706 46.5601 16.0007 44.9344C14.4326 43.0586 13.5674 40.5784 13.5674 37.9314V23.0084C13.5674 22.6124 13.7296 22.2581 14 22.0288C14.2703 21.7996 14.6308 21.737 14.9553 21.8829L35.3772 30.1364L56.2498 21.9871C56.5743 21.8621 56.9167 21.9246 57.1871 22.1539C57.4575 22.3831 57.6197 22.7375 57.6197 23.1335V37.9522C57.6197 40.5992 56.7545 43.0794 55.1864 44.9552C53.8706 46.5392 52.0681 47.6439 49.5446 48.4567C49.2562 48.5401 43.4703 50.1032 35.0528 50.1032V50.0824ZM15.6402 24.6966V37.9106C15.6402 39.8906 16.3071 41.8497 17.4968 43.2462C18.8126 44.8093 19.4074 45.5388 21.6064 46.0807C21.6965 46.1015 26.9237 47.6439 35.0528 47.6439C43.1819 47.6439 48.9679 46.1015 49.0219 46.0807C51.1488 45.3929 52.6269 44.4967 53.6903 43.2253C54.8619 41.8289 55.5469 39.8906 55.5469 37.8897V24.7591L35.7017 32.5124C35.4854 32.5958 35.2511 32.5958 35.0168 32.5124L15.6582 24.6758L15.6402 24.6966Z" fill="white" stroke="white" stroke-width="0.5"/>
<path d="M35.1077 27.948C34.9996 27.948 34.8914 27.948 34.7833 27.8855L1.36552 15.3385C0.932926 15.1926 0.644531 14.7132 0.644531 14.1922C0.644531 13.6711 0.932926 13.2126 1.36552 13.0459L34.6571 0.707302C34.8734 0.623933 35.0897 0.623933 35.306 0.707302L68.7418 13.3585C69.1744 13.5252 69.4628 13.9838 69.4628 14.5048C69.4628 15.0259 69.1744 15.4844 68.7418 15.6511L54.2139 20.9867L35.4322 27.8855C35.324 27.9272 35.2159 27.948 35.1077 27.948ZM5.0786 14.213L35.1077 25.4886L65.0107 14.5048L34.9815 3.12499L5.0786 14.213Z" fill="white" stroke="white" stroke-width="0.5" stroke-linejoin="round"/>
<path d="M63.856 34.159C63.2792 34.159 62.8105 33.6171 62.8105 32.9502V18.0063C62.8105 17.3394 63.2792 16.7975 63.856 16.7975C64.4328 16.7975 64.9014 17.3394 64.9014 18.0063V32.9502C64.9014 33.6171 64.4328 34.159 63.856 34.159Z" fill="white"/>
<path fill-rule="evenodd" clip-rule="evenodd" d="M63.856 17.0612C63.4595 17.0612 63.0742 17.4478 63.0742 18.0063V32.9502C63.0742 33.5088 63.4595 33.8953 63.856 33.8953C64.2525 33.8953 64.6377 33.5088 64.6377 32.9502V18.0063C64.6377 17.4478 64.2525 17.0612 63.856 17.0612ZM62.5469 18.0063C62.5469 17.231 63.0989 16.5338 63.856 16.5338C64.613 16.5338 65.1651 17.231 65.1651 18.0063V32.9502C65.1651 33.7255 64.613 34.4227 63.856 34.4227C63.0989 34.4227 62.5469 33.7255 62.5469 32.9502V18.0063Z" fill="white"/>
<path d="M66.0204 40.8911H61.1177C60.5409 40.8911 60.0723 40.3492 60.0723 39.6822V34.0132C60.0723 33.3462 60.5409 32.8043 61.1177 32.8043H66.0204C66.5972 32.8043 67.0658 33.3462 67.0658 34.0132V39.6822C67.0658 40.3492 66.5972 40.8911 66.0204 40.8911ZM62.1631 38.4734H64.975V35.222H62.1631V38.4734Z" fill="white" stroke="white" stroke-width="0.5"/>
</svg>
