<svg width="54" height="54" viewBox="0 0 54 54" fill="none" xmlns="http://www.w3.org/2000/svg">
<path d="M39.7667 53.6996H39.2497C38.8255 53.4648 38.6532 53.0723 38.5372 52.6193C35.1205 39.3337 31.6972 26.0481 28.2772 12.7624C28.2407 12.6148 28.191 12.4706 28.1513 12.3263L28.0353 12.3565V13.0308C28.0353 26.1219 28.0353 39.2096 28.0419 52.3006C28.0419 52.871 27.9624 53.3675 27.4586 53.703H0.655273C0.655273 38.4111 0.655273 23.1225 0.655273 7.83064C0.963472 7.33075 1.4208 7.21333 1.97755 7.21668C6.03053 7.2301 10.0802 7.22339 14.1332 7.22339H14.786C14.786 6.96506 14.786 6.77719 14.786 6.58931C14.786 4.84473 14.786 3.10015 14.786 1.35222C14.786 0.349083 15.0578 0.0806865 16.0487 0.0806865C19.5979 0.0773315 23.1505 0.0773315 26.7031 0.0773315C27.7834 0.0773315 28.0286 0.328954 28.0286 1.44615C28.0286 4.5193 28.0286 7.58909 28.0286 10.6622V11.2124C28.3567 11.0447 28.6119 10.8568 28.8969 10.7797C33.152 9.61884 37.4105 8.47144 41.6689 7.3274C42.4775 7.10933 42.8653 7.34753 43.0774 8.16949C46.5603 21.6732 50.04 35.1736 53.5197 48.6773C53.7517 49.5831 53.5561 49.932 52.668 50.1702C49.9903 50.8983 47.3126 51.6129 44.6382 52.3442C43.0111 52.7871 41.3906 53.2467 39.7667 53.6996ZM16.5988 11.7224V42.9504H26.2258V11.7224H16.5988ZM2.45476 13.5039V40.2697H14.7529V13.5039H2.45476ZM48.9133 37.9011C47.1966 31.2348 45.4999 24.6491 43.7932 18.0197C39.9258 19.063 36.1147 20.093 32.2606 21.1331C33.9772 27.7994 35.6773 34.3952 37.3807 41.0145C41.2547 39.9678 45.0558 38.9445 48.9133 37.9011ZM14.7463 51.8913V46.5871H2.44482V51.8913H14.7429H14.7463ZM42.4908 12.947C42.1528 11.6553 41.8379 10.4509 41.5165 9.21624C37.6391 10.2663 33.8248 11.2963 29.9872 12.333C30.3186 13.6079 30.6268 14.8022 30.9516 16.057C34.8123 15.017 38.63 13.987 42.4908 12.947ZM50.7094 44.8694C46.8487 45.9094 43.0343 46.9394 39.1768 47.9828L40.1379 51.7135C44.0185 50.6634 47.8329 49.6334 51.6705 48.5967C51.3424 47.3252 51.0309 46.1208 50.7061 44.8727L50.7094 44.8694ZM49.3573 39.6323C45.4966 40.6757 41.6855 41.7057 37.8314 42.7491C38.1396 43.9434 38.4312 45.0841 38.7328 46.2516C42.6002 45.2082 46.4112 44.1783 50.2654 43.1382C49.9538 41.9405 49.6622 40.8032 49.3573 39.6323ZM26.2258 5.40836V1.89236H16.5921V5.40836H26.2258ZM16.5789 51.888H26.2192V48.3854H16.5789V51.888ZM2.4415 11.662H14.7396V9.04178H2.4415V11.662ZM14.7562 42.1183H2.4415V44.7318H14.7562V42.1183ZM26.2258 7.25359H16.5921V9.87381H26.2258V7.25359ZM42.9249 14.6748C39.0542 15.7215 35.2398 16.7515 31.3923 17.7915C31.5414 18.3518 31.6773 18.8617 31.8198 19.4019C35.6905 18.3551 39.5016 17.3218 43.3392 16.2851L42.9249 14.6781V14.6748ZM26.2192 46.5301V44.8023H16.5988V46.5301H26.2192Z" fill="white"/>
<path d="M4.17775 20.6167C4.17775 19.5163 4.17112 18.4192 4.17775 17.3188C4.18438 16.5001 4.49589 16.1814 5.31113 16.1814C7.50166 16.1747 9.68888 16.1747 11.8794 16.1814C12.7079 16.1814 13.0062 16.48 13.0095 17.3154C13.0161 19.5297 13.0161 21.7473 13.0095 23.9616C13.0095 24.8104 12.6913 25.109 11.833 25.1123C9.67894 25.1123 7.52486 25.1123 5.36746 25.1123C4.49258 25.1123 4.18106 24.797 4.17775 23.9146C4.17444 22.8142 4.17775 21.7171 4.17775 20.6167ZM5.97061 17.9965V23.2973H11.21V17.9965H5.97061Z" fill="white"/>
</svg>
