<svg width="14" height="18" viewBox="0 0 14 18" fill="none" xmlns="http://www.w3.org/2000/svg">
<g clip-path="url(#clip0_336_79916)">
<path d="M7.35341 17.55C9.10227 15.293 13.0909 9.82266 13.0909 6.75C13.0909 3.02344 10.1591 0 6.54545 0C2.93182 0 0 3.02344 0 6.75C0 9.82266 3.98864 15.293 5.7375 17.55C6.15682 18.0879 6.93409 18.0879 7.35341 17.55V17.55ZM6.54545 9C5.34205 9 4.36364 7.99102 4.36364 6.75C4.36364 5.50898 5.34205 4.5 6.54545 4.5C7.74886 4.5 8.72727 5.50898 8.72727 6.75C8.72727 7.99102 7.74886 9 6.54545 9Z" fill="black" fill-opacity="0.4"/>
</g>
<defs>
<clipPath id="clip0_336_79916">
<rect width="13.0909" height="18" fill="white"/>
</clipPath>
</defs>
</svg>
