<svg width="26" height="27" viewBox="0 0 26 27" fill="none" xmlns="http://www.w3.org/2000/svg">
<path d="M12.2981 26.3707C9.0145 26.3707 5.73162 26.3707 2.44801 26.3707C0.975706 26.3707 0.00326522 25.4161 0.00254702 23.9523C-0.000325776 17.9945 -0.00104398 12.036 0.00182882 6.07752C0.00254702 4.61795 0.978579 3.66553 2.45448 3.66553C7.57667 3.66553 12.6981 3.66553 17.8203 3.66553C18.3432 3.66553 18.3518 3.66553 18.3432 3.15411C18.3267 2.13341 18.7095 1.34174 19.6553 0.865885C19.8579 0.76417 20.0704 0.686639 20.3003 0.673125C21.2296 0.617644 22.1633 0.546515 23.0797 0.757769C24.7617 1.14542 25.9855 2.63273 25.9891 4.34339C26.0021 10.4555 26.0056 16.5677 25.9877 22.6791C25.9812 24.7198 24.2683 26.36 22.1841 26.3678C18.889 26.3799 15.5939 26.3714 12.2981 26.3714V26.3707ZM22.1274 24.8599C23.4402 24.8414 24.4601 23.8534 24.4687 22.6179C24.4773 21.3717 23.4086 20.3375 22.0936 20.3226C21.6634 20.3176 21.2339 20.3226 20.8037 20.3211C19.7645 20.3183 18.9924 19.8823 18.5507 18.9341C18.4861 18.7954 18.4064 18.7399 18.2635 18.715C16.3286 18.38 14.9684 17.3074 14.1762 15.5391C13.7783 14.6507 13.142 14.0468 12.2493 13.6485C10.2261 12.7452 8.84213 11.2415 8.07869 9.17378C7.63843 7.98165 7.61832 6.74471 7.65423 5.50209C7.66142 5.24602 7.60899 5.16209 7.32817 5.16493C5.71582 5.18058 4.10418 5.17134 2.49182 5.17347C1.80666 5.17418 1.54236 5.43807 1.54093 6.1202C1.53877 7.72843 1.54739 9.33666 1.53303 10.9449C1.53016 11.228 1.60269 11.3347 1.89644 11.3496C2.15427 11.3631 2.4121 11.4414 2.66204 11.5168C4.94232 12.2003 6.49291 13.6549 7.28364 15.8777C7.59319 16.7476 8.14835 17.3031 9.04467 17.5741C12.5559 18.6347 14.6093 20.9663 15.1838 24.5597C15.2205 24.7888 15.2865 24.8734 15.535 24.8699C16.6332 24.8556 17.732 24.8635 18.8308 24.8635C19.9297 24.8635 21.0285 24.8755 22.1267 24.8599H22.1274ZM24.4723 19.2243C24.4723 15.9495 24.4723 12.6748 24.4723 9.39926C24.4723 7.76755 24.4809 6.13585 24.4694 4.50485C24.4601 3.12353 23.4934 2.17537 22.1015 2.1583C21.6835 2.15332 21.2655 2.15688 20.8475 2.1583C20.1293 2.15973 19.8859 2.40228 19.8852 3.11926C19.8852 7.91906 19.8852 12.7196 19.8852 17.5194C19.8852 18.6752 20.0116 18.8153 21.1729 18.7919C22.3234 18.7684 23.4395 18.853 24.4716 19.6177C24.4716 19.4299 24.4716 19.3275 24.4716 19.2243H24.4723ZM1.54093 23.8499C1.54093 24.6259 1.78081 24.8635 2.56867 24.8635C6.14961 24.8635 9.73055 24.8578 13.3122 24.8727C13.6562 24.8741 13.713 24.7745 13.6512 24.4765C13.0874 21.7537 11.4937 19.9079 8.80838 19.0949C7.28795 18.6347 6.31479 17.747 5.78979 16.2668C5.14054 14.4366 3.8011 13.3284 1.89572 12.8689C1.55601 12.7871 1.53375 12.8917 1.53518 13.1762C1.54667 14.9729 1.54093 16.7697 1.54093 18.5657C1.54093 20.3268 1.54093 22.088 1.54093 23.8492V23.8499ZM18.3518 5.51204C18.354 5.22255 18.2635 5.16422 17.9913 5.16707C16.7265 5.18058 15.4611 5.17347 14.1956 5.17347C12.6199 5.17347 11.0441 5.17774 9.46912 5.16849C9.23643 5.16707 9.15527 5.22539 9.16676 5.46368C9.18615 5.86485 9.15814 6.26744 9.17538 6.66861C9.28814 9.27549 10.5069 11.1739 12.91 12.2757C14.1582 12.8476 15.061 13.7189 15.6047 14.9737C16.0737 16.0555 16.9018 16.7505 18.0372 17.1047C18.3231 17.1936 18.3496 17.104 18.3482 16.8586C18.341 14.9673 18.3439 13.0766 18.3439 11.1853C18.3439 9.29398 18.3367 7.40337 18.3511 5.51204H18.3518ZM7.64992 21.0573C7.64274 19.8211 6.61428 18.804 5.36821 18.8004C4.10418 18.7968 3.06495 19.8211 3.06423 21.0716C3.06279 22.3277 4.09053 23.3384 5.36462 23.3349C6.64014 23.3313 7.65782 22.3177 7.64992 21.0573ZM12.9517 9.46896C12.566 9.84808 12.5315 10.3054 12.8504 10.6255C13.1686 10.9449 13.6332 10.9093 14.0196 10.5395C14.1898 10.3766 14.3636 10.0963 14.5396 10.0935C14.7098 10.0906 14.8843 10.3759 15.0574 10.5345C15.382 10.8318 15.8137 10.8368 16.1153 10.5459C16.4191 10.2535 16.4234 9.78833 16.1103 9.47039C15.9444 9.30181 15.7548 9.15528 15.5573 8.98173C15.7835 8.76692 15.9724 8.60261 16.1426 8.42265C16.4356 8.11324 16.4285 7.6573 16.1376 7.36994C15.8367 7.07262 15.4079 7.06977 15.0768 7.35998C14.8908 7.52287 14.75 7.83086 14.5303 7.83228C14.3098 7.8337 14.169 7.52429 13.983 7.36212C13.6505 7.07262 13.2231 7.07262 12.9222 7.36852C12.6285 7.65659 12.6199 8.1104 12.9129 8.41981C13.0838 8.60048 13.2713 8.76621 13.5061 8.99097C13.3108 9.15813 13.1204 9.30323 12.9517 9.46896ZM5.38904 20.3261C4.95812 20.3119 4.59758 20.6434 4.59112 21.0602C4.58465 21.4606 4.92005 21.8113 5.32583 21.8291C5.74383 21.8476 6.11298 21.5054 6.12447 21.0879C6.13596 20.6896 5.79841 20.3403 5.38904 20.3268V20.3261Z" fill="#91C9C1"/>
</svg>
