<svg width="68" height="61" viewBox="0 0 68 61" fill="none" xmlns="http://www.w3.org/2000/svg">
<path d="M50.4507 33.1184C50.4507 25.2655 44.0559 18.8707 36.1822 18.8707C28.3085 18.8707 21.9346 25.2655 21.9346 33.1184C21.9346 37.2635 23.7051 40.9712 26.538 43.575C26.5796 43.6375 26.6421 43.6791 26.7046 43.7416C29.225 45.9913 32.537 47.3869 36.1822 47.3869C39.8275 47.3869 43.1394 46.0121 45.6598 43.7625C45.7223 43.7 45.7848 43.6583 45.8473 43.5958C48.6593 40.9921 50.4507 37.2635 50.4507 33.1392V33.1184ZM24.0384 33.1184C24.0384 26.4112 29.4958 20.9537 36.2031 20.9537C42.9103 20.9537 48.3677 26.4112 48.3677 33.1184C48.3677 36.2429 47.1804 39.0757 45.2432 41.242C44.3684 39.9714 43.2644 38.9091 41.9313 38.0967C41.348 37.7426 40.744 37.4718 40.1191 37.2427C41.7021 36.0554 42.7436 34.1599 42.7436 32.0352C42.7436 28.4316 39.8066 25.4738 36.1822 25.4738C32.5578 25.4738 29.6208 28.4108 29.6208 32.0352C29.6208 34.1807 30.6623 36.0554 32.2454 37.2427C31.6205 37.4718 31.0164 37.7426 30.4332 38.0967C29.1209 38.9091 27.9961 39.9714 27.1212 41.242C25.184 39.0966 23.9967 36.2429 23.9967 33.1184H24.0384ZM31.7455 32.0144C31.7455 29.5565 33.7451 27.5568 36.2031 27.5568C38.661 27.5568 40.6606 29.5565 40.6606 32.0144C40.6606 34.4723 38.661 36.472 36.2031 36.472C33.7451 36.472 31.7455 34.4723 31.7455 32.0144ZM28.7251 42.7001C29.4542 41.5545 30.4123 40.5963 31.558 39.8881C34.3492 38.18 38.0361 38.18 40.8273 39.8881C41.9729 40.5963 42.9311 41.5753 43.6602 42.7001C41.598 44.304 39.0151 45.283 36.1822 45.283C33.3494 45.283 30.7873 44.304 28.7043 42.7001H28.7251Z" fill="white"/>
<path d="M37.962 13.9349V13.8124H37.8395H36.1943H36.0718V13.9349V17.7736V17.8961H36.1943H37.8395H37.962V17.7736V13.9349Z" fill="white" stroke="white" stroke-width="0.245"/>
<path d="M25.8789 43.9684L25.7897 43.8844L25.7057 43.9736L21.488 48.4525L21.404 48.5417L21.4932 48.6257L22.7644 49.8228L22.8536 49.9068L22.9376 49.8176L27.1553 45.3387L27.2393 45.2495L27.1501 45.1655L25.8789 43.9684Z" fill="white" stroke="white" stroke-width="0.245"/>
<path d="M12.863 17.6765L12.757 17.6152L12.6957 17.7213L11.8226 19.2335L11.7614 19.3396L11.8675 19.4009L23.0103 25.8342L23.1164 25.8954L23.1776 25.7894L24.0507 24.2771L24.1119 24.171L24.0058 24.1098L12.863 17.6765Z" fill="white" stroke="white" stroke-width="0.245"/>
<path d="M50.4501 39.3943L50.3443 39.3324L50.2824 39.4381L49.4001 40.9449L49.3383 41.0507L49.444 41.1125L55.024 44.3798L55.1298 44.4417L55.1916 44.336L56.0739 42.8291L56.1358 42.7234L56.0301 42.6615L50.4501 39.3943Z" fill="white" stroke="white" stroke-width="0.245"/>
<path d="M36.7412 12.8384C40.0626 12.8384 42.7735 10.1276 42.7735 6.80618C42.7735 3.48478 40.0626 0.773926 36.7412 0.773926C33.4198 0.773926 30.709 3.48478 30.709 6.80618C30.709 10.1276 33.4198 12.8384 36.7412 12.8384ZM36.7412 3.24056C38.695 3.24056 40.3069 4.82799 40.3069 6.80618C40.3069 8.78437 38.7194 10.3718 36.7412 10.3718C34.7631 10.3718 33.1756 8.78437 33.1756 6.80618C33.1756 4.82799 34.7875 3.24056 36.7412 3.24056Z" fill="white"/>
<path d="M61.9668 53.4191C65.2882 53.4191 67.9991 50.7083 67.9991 47.3869C67.9991 44.0655 65.2882 41.3546 61.9668 41.3546C58.6454 41.3546 55.9346 44.0655 55.9346 47.3869C55.9346 50.7083 58.6454 53.4191 61.9668 53.4191ZM61.9668 43.8212C63.9206 43.8212 65.5325 45.4087 65.5325 47.3869C65.5325 49.3651 63.945 50.9525 61.9668 50.9525C59.9886 50.9525 58.4012 49.3651 58.4012 47.3869C58.4012 45.4087 60.0131 43.8212 61.9668 43.8212Z" fill="white"/>
<path d="M17 60.5483C20.3214 60.5483 23.0323 57.8374 23.0323 54.516C23.0323 51.1946 20.3214 48.4838 17 48.4838C13.6786 48.4838 10.9678 51.1946 10.9678 54.516C10.9678 57.8374 13.6786 60.5483 17 60.5483ZM17 50.9504C18.9538 50.9504 20.5657 52.5378 20.5657 54.516C20.5657 56.4942 18.9782 58.0816 17 58.0816C15.0218 58.0816 13.4344 56.4942 13.4344 54.516C13.4344 52.5378 15.0463 50.9504 17 50.9504Z" fill="white"/>
<path d="M6.03226 21.0641C9.35366 21.0641 12.0645 18.3533 12.0645 15.0319C12.0645 11.7105 9.35366 8.99963 6.03226 8.99963C2.71086 8.99963 0 11.7105 0 15.0319C0 18.3533 2.71086 21.0641 6.03226 21.0641ZM6.03226 11.4663C7.98603 11.4663 9.59788 13.0537 9.59788 15.0319C9.59788 17.0101 8.01045 18.5975 6.03226 18.5975C4.05407 18.5975 2.46663 17.0101 2.46663 15.0319C2.46663 13.0537 4.07849 11.4663 6.03226 11.4663Z" fill="white"/>
</svg>
