<svg width="1440" height="249" viewBox="0 0 1440 249" fill="none" xmlns="http://www.w3.org/2000/svg">
<path d="M1440 10.2402C1440 10.2402 1410.03 33.398 1380.04 10.273C1350.07 -12.8412 1320.08 10.273 1320.08 10.273C1320.08 10.273 1289.6 33.2234 1259.84 10.273C1230.08 -12.6775 1200.04 10.273 1200.04 10.273C1200.04 10.273 1169.63 33.1689 1139.94 10.273C1110.25 -12.6229 1080.14 10.273 1080.14 10.273C1080.14 10.273 1049.3 33.0597 1019.76 10.273C990.208 -12.5138 959.981 10.273 959.981 10.273C959.981 10.273 930.009 33.4199 900.023 10.3057C870.051 -12.8085 840.065 10.3057 840.065 10.3057C840.065 10.3057 809.583 33.2562 779.824 10.3057C750.064 -12.6448 720.021 10.3057 720.021 10.3057C720.021 10.3057 689.611 33.2016 659.922 10.3057C630.233 -12.5902 600.119 10.3057 600.119 10.3057C600.119 10.3057 569.284 33.0925 539.736 10.3057C510.189 -12.4811 479.962 10.3057 479.962 10.3057L480.005 10.273C480.005 10.273 450.033 33.4308 420.047 10.3057C390.06 -12.8194 360.088 10.3057 360.088 10.3057C360.088 10.3057 329.607 33.2562 299.847 10.3057C270.088 -12.6448 240.045 10.3057 240.045 10.3057C240.045 10.3057 209.634 33.2016 179.945 10.3057C150.256 -12.5902 120.143 10.3057 120.143 10.3057C120.143 10.3057 89.3075 33.0925 59.76 10.3057C30.2267 -12.4811 0 10.3057 0 10.3057V248.5H1440V10.2402Z" fill="#DAF9F4"/>
</svg>
