<svg width="27" height="27" viewBox="0 0 27 27" fill="none" xmlns="http://www.w3.org/2000/svg">
<path d="M13.5005 26.0011C20.4044 26.0011 26.0011 20.4044 26.0011 13.5005C26.0011 6.59668 20.4044 1 13.5005 1C6.59668 1 1 6.59668 1 13.5005C1 20.4044 6.59668 26.0011 13.5005 26.0011Z" stroke="#475657" stroke-width="1.5" stroke-miterlimit="10"/>
<path d="M24.72 19.0193L17.6511 14.6716C17.5272 14.5954 17.3887 14.546 17.2446 14.5266L14.2732 14.126C14.0501 14.096 13.8233 14.139 13.6266 14.2486C13.43 14.3583 13.2742 14.5287 13.1826 14.7344L11.3988 18.7369C11.3159 18.9231 11.2893 19.1294 11.3225 19.3305C11.3557 19.5316 11.4471 19.7185 11.5854 19.8681L14.0334 22.516C14.1444 22.636 14.2256 22.7805 14.2704 22.9377C14.3152 23.0949 14.3223 23.2605 14.2913 23.421L13.7926 25.9988" stroke="#475657" stroke-width="1.5" stroke-linecap="round" stroke-linejoin="round"/>
<path d="M5.29039 4.07446L4.12573 6.82845C4.02188 7.07401 4.01614 7.35004 4.10968 7.5997L5.60595 11.5931C5.66722 11.7567 5.76863 11.9022 5.90083 12.0163C6.03304 12.1304 6.19181 12.2094 6.36254 12.2461L9.15302 12.8458C9.30786 12.8791 9.45307 12.9473 9.57761 13.0451C9.70216 13.1429 9.80276 13.2679 9.87176 13.4104L10.3673 14.4342C10.4526 14.6103 10.5858 14.7589 10.7516 14.8629C10.9174 14.9669 11.1092 15.022 11.3049 15.022H13.0541" stroke="#475657" stroke-width="1.5" stroke-linecap="round" stroke-linejoin="round"/>
<path d="M16.686 1.41089L17.9014 3.58786C18.0163 3.79366 18.058 4.03233 18.0197 4.2649C17.9814 4.49747 17.8654 4.71017 17.6906 4.86827L14.1864 8.03736C14.1269 8.09114 14.0614 8.13788 13.9913 8.17664L12.3972 9.05693C12.243 9.14208 12.0698 9.18674 11.8936 9.18674H9.11416C8.90919 9.18674 8.70877 9.24721 8.53801 9.36058C8.36724 9.47394 8.23371 9.63516 8.15414 9.82406L7.06982 12.3982" stroke="#475657" stroke-width="1.5" stroke-linecap="round" stroke-linejoin="round"/>
</svg>
