<svg width="27" height="28" viewBox="0 0 27 28" fill="none" xmlns="http://www.w3.org/2000/svg">
<path d="M25.3166 0.00781818H1.51002C0.627426 0.00781818 0.588379 0.0546801 0.588379 0.921651V21.7758C0.588379 22.6662 0.627435 22.6975 1.49441 22.6975C3.46267 22.6975 5.43093 22.7053 7.407 22.6897C7.57102 22.6818 7.72724 22.7053 7.87564 22.7756C8.02404 22.8459 8.14899 22.9474 8.25053 23.0724C8.63325 23.5566 9.04722 24.0174 9.48461 24.4548C10.0313 24.9781 10.2891 25.5483 10.2422 26.3372C10.1876 27.3291 10.8671 27.9774 11.859 27.9852C13.8116 28.0086 15.7565 28.0008 17.7091 27.9852C18.5292 27.9774 19.0291 27.5947 19.3181 26.8136C19.4118 26.5793 19.4899 26.345 19.5368 26.0951C19.7086 24.9938 19.857 23.8925 20.0289 22.6897H25.3557C26.1289 22.6897 26.1914 22.6272 26.1914 21.8774V0.851347C26.1914 0.0624816 26.1211 0 25.3244 0L25.3166 0.00781818ZM1.47098 0.913833H25.2853V4.48326H1.47098V0.913833ZM18.7245 25.8295C18.6776 25.9935 18.6386 26.1654 18.5839 26.3294C18.3652 27.0011 18.2012 27.126 17.506 27.126H14.7802C13.8507 27.126 12.9291 27.126 11.9996 27.126C11.2888 27.126 10.992 26.8839 11.0702 26.1966C11.1639 25.2828 10.828 24.6267 10.2032 23.994C9.4143 23.1973 8.69573 22.3382 7.96154 21.4946C7.82876 21.3384 7.67256 21.1354 7.67256 20.9557C7.69599 20.737 7.80534 20.5339 7.96936 20.3934C8.21149 20.1981 8.49266 20.2918 8.69574 20.5105C9.14094 20.9948 9.57051 21.4868 10.0079 21.9789C10.1016 22.0961 10.211 22.2132 10.3281 22.3148C10.6249 22.5413 10.953 22.4241 11.0233 22.0492C11.0467 21.893 11.0467 21.7368 11.0389 21.5806V17.2926C11.0389 17.1598 11.0311 17.0192 11.0389 16.8864C11.0701 16.4178 11.3357 16.0975 11.7184 16.0975C12.1011 16.0975 12.3979 16.41 12.4058 16.8708C12.4136 17.6987 12.4058 18.5266 12.4136 19.3624C12.4136 19.5498 12.4604 19.7373 12.562 19.8935C12.7729 20.159 13.1478 20.0184 13.2337 19.6279C13.304 19.3233 13.3977 19.0734 13.7101 18.964C14.1397 18.8156 14.5146 19.0734 14.6083 19.5967C14.6474 19.8544 14.663 20.12 14.9832 20.1669C15.3035 20.2137 15.405 19.9794 15.5065 19.7373C15.5534 19.5967 15.6549 19.4795 15.7799 19.4014C15.9049 19.3233 16.0533 19.2921 16.2017 19.3155C16.5532 19.3545 16.7328 19.5967 16.8109 19.9247C16.8343 20.0341 16.8109 20.1747 16.8578 20.2606C16.9359 20.3777 17.0609 20.5261 17.178 20.5496C17.2952 20.573 17.4592 20.4715 17.5763 20.3855C17.6466 20.3387 17.6544 20.2137 17.7013 20.1278C17.8497 19.8154 18.0918 19.6357 18.4433 19.6982C18.6073 19.7138 18.7635 19.7998 18.8729 19.9325C18.9822 20.0653 19.0369 20.2293 19.0213 20.4012C18.99 22.2132 19.2009 24.0331 18.7089 25.8139L18.7245 25.8295ZM10.1876 16.4803H8.26617V9.38829H18.787V16.4803H13.3352C12.6713 14.8947 10.9139 14.801 10.1954 16.4803H10.1876ZM25.2853 21.7993H19.8883V20.7058C19.8883 19.1671 18.8885 18.4954 17.5295 19.0734C17.1468 18.8703 16.8109 18.5969 16.4438 18.5266C16.0689 18.4563 15.6627 18.5891 15.1551 18.6438C14.7333 18.1674 14.1084 17.9018 13.304 18.2142V17.355H16.3032C17.2092 17.3472 18.1153 17.3551 19.0291 17.3472C19.5602 17.3472 19.6696 17.2301 19.6696 16.6912C19.6696 14.184 19.6696 11.669 19.6696 9.16177C19.6696 8.61504 19.5758 8.51351 19.0291 8.51351C15.3581 8.51351 11.695 8.51351 8.02404 8.51351C7.49292 8.51351 7.38357 8.63066 7.38357 9.1774C7.38357 11.6846 7.38357 14.1996 7.38357 16.7068C7.38357 17.2223 7.50854 17.3394 8.04747 17.3472C8.74261 17.3472 9.43775 17.3472 10.1719 17.3472V20.8386C9.89857 20.5418 9.68768 20.3074 9.47679 20.0731C8.86757 19.4092 8.17242 19.2686 7.51634 19.667C6.8993 20.0341 6.55564 20.901 7.00865 21.6352C7.03209 21.6899 7.0399 21.7524 7.0399 21.8149H1.47098V5.41272H25.2932V21.8071L25.2853 21.7993Z" fill="#67BEA1"/>
<path d="M17.3342 2.30468C17.0295 2.24219 16.7171 2.24219 16.4125 2.30468C16.2563 2.33592 16.0376 2.55461 16.0376 2.6952C16.0376 2.83579 16.2563 3.00763 16.4203 3.09355C16.5375 3.15603 16.7249 3.10136 16.8733 3.10136C17.0217 3.10136 17.2092 3.15603 17.3342 3.09355C17.4982 3.00763 17.7169 2.82799 17.7169 2.6874C17.7169 2.54681 17.4904 2.33592 17.3342 2.29687V2.30468Z" fill="#67BEA1"/>
<path d="M20.1149 2.28112C19.9587 2.28112 19.8103 2.28112 19.6541 2.28112C19.3261 2.29674 18.9199 2.17958 18.8418 2.67165C18.7949 2.98407 19.0527 3.10904 19.6697 3.10904C19.8181 3.10904 19.9822 3.10904 20.1228 3.10904C20.3883 3.09342 20.568 2.96845 20.568 2.68727C20.568 2.40609 20.3805 2.28893 20.1149 2.28112Z" fill="#67BEA1"/>
<path d="M23.0436 2.30345C22.903 2.24097 22.7077 2.28784 22.5359 2.28784C22.3641 2.28784 22.1766 2.23316 22.0282 2.30345C21.8798 2.37375 21.7002 2.54559 21.6924 2.67837C21.6924 2.81896 21.872 3.06108 21.997 3.0767C22.3563 3.13138 22.7234 3.13138 23.0748 3.0767C23.1998 3.05327 23.3794 2.81115 23.3794 2.67837C23.3794 2.54559 23.1842 2.36594 23.0436 2.30345Z" fill="#67BEA1"/>
<path d="M11.539 14.3873C11.5546 14.8559 11.8124 15.0356 12.2185 14.8403C13.2183 14.3561 14.2102 13.8562 15.1943 13.3251C15.5927 13.1064 15.6005 12.7393 15.2099 12.5284C14.2258 12.0051 13.2339 11.5052 12.2341 11.0131C11.8202 10.8179 11.5624 10.9897 11.5468 11.4505C11.5312 11.9504 11.5468 12.4503 11.5468 12.9502C11.5468 13.45 11.5234 13.9109 11.5468 14.3795L11.539 14.3873ZM12.4138 12.0676L14.1399 12.9267L12.4138 13.8171V12.0676Z" fill="#67BEA1"/>
</svg>
