<svg width="32" height="32" viewBox="0 0 32 32" fill="none" xmlns="http://www.w3.org/2000/svg">
<path d="M15.8349 16.3084C12.9603 16.3084 11.1506 15.7746 11.0767 15.7461C10.1349 15.5112 9.79637 15.1055 9.32855 14.5503C8.79302 13.9097 8.49756 13.0627 8.49756 12.1588V7.06252C8.49756 6.92729 8.55296 6.80629 8.64529 6.72799C8.73762 6.6497 8.86073 6.62835 8.97153 6.67817L15.9457 9.49677L23.0738 6.71376C23.1846 6.67105 23.3015 6.6924 23.3939 6.7707C23.4862 6.84899 23.5416 6.96999 23.5416 7.10523V12.1659C23.5416 13.0698 23.2461 13.9169 22.7106 14.5574C22.2612 15.0984 21.6457 15.4756 20.7839 15.7532C20.6854 15.7817 18.7095 16.3155 15.8349 16.3155V16.3084ZM9.20544 7.63906V12.1517C9.20544 12.8278 9.43319 13.4969 9.83946 13.9738C10.2888 14.5076 10.4919 14.7567 11.2429 14.9418C11.2737 14.9489 13.0588 15.4756 15.8349 15.4756C18.611 15.4756 20.5869 14.9489 20.6054 14.9418C21.3318 14.7069 21.8365 14.4009 22.1997 13.9667C22.5998 13.4898 22.8337 12.8278 22.8337 12.1446V7.66041L16.0565 10.3082C15.9826 10.3367 15.9026 10.3367 15.8226 10.3082L9.2116 7.63194L9.20544 7.63906Z" fill="#67BEA1" stroke="#67BEA1" stroke-width="0.25"/>
<path d="M15.8087 8.50841C15.7736 8.50841 15.7386 8.50841 15.7036 8.48926L4.87809 4.64751C4.73796 4.60283 4.64453 4.45606 4.64453 4.29651C4.64453 4.13697 4.73796 3.99658 4.87809 3.94552L15.6627 0.167582C15.7328 0.142056 15.8028 0.142056 15.8729 0.167582L26.7042 4.04125C26.8444 4.0923 26.9378 4.2327 26.9378 4.39224C26.9378 4.55178 26.8444 4.69218 26.7042 4.74323L21.998 6.37694L15.9138 8.48926C15.8787 8.50203 15.8437 8.50841 15.8087 8.50841ZM6.08092 4.3029L15.8087 7.75537L25.4956 4.39224L15.7678 0.907855L6.08092 4.3029Z" fill="#67BEA1" stroke="#67BEA1" stroke-width="0.25" stroke-linejoin="round"/>
<path d="M25.4434 11.6507C25.2465 11.6507 25.0864 11.4656 25.0864 11.2379V6.13451C25.0864 5.90674 25.2465 5.72168 25.4434 5.72168C25.6404 5.72168 25.8005 5.90674 25.8005 6.13451V11.2379C25.8005 11.4656 25.6404 11.6507 25.4434 11.6507Z" fill="#67BEA1" stroke="#67BEA1" stroke-width="0.25"/>
<path d="M26.1822 13.9501H24.5079C24.3109 13.9501 24.1509 13.7651 24.1509 13.5373V11.6013C24.1509 11.3735 24.3109 11.1885 24.5079 11.1885H26.1822C26.3792 11.1885 26.5392 11.3735 26.5392 11.6013V13.5373C26.5392 13.7651 26.3792 13.9501 26.1822 13.9501ZM24.8649 13.1245H25.8252V12.0141H24.8649V13.1245Z" fill="#67BEA1" stroke="#67BEA1" stroke-width="0.25"/>
<path d="M5.08481 24.8335C5.55106 24.8335 5.9289 24.455 5.9289 23.988C5.9289 23.521 5.55106 23.1426 5.08481 23.1426C4.61857 23.1426 4.24072 23.521 4.24072 23.988C4.24072 24.455 4.61857 24.8335 5.08481 24.8335Z" fill="#67BEA1"/>
<path d="M7.4481 24.8335C7.91427 24.8335 8.29219 24.455 8.29219 23.988C8.29219 23.5211 7.91427 23.1426 7.4481 23.1426C6.98192 23.1426 6.604 23.5211 6.604 23.988C6.604 24.455 6.98192 24.8335 7.4481 24.8335Z" fill="#67BEA1"/>
<path d="M9.81089 24.8335C10.2771 24.8335 10.655 24.455 10.655 23.988C10.655 23.521 10.2771 23.1426 9.81089 23.1426C9.34464 23.1426 8.9668 23.521 8.9668 23.988C8.9668 24.455 9.34464 24.8335 9.81089 24.8335Z" fill="#67BEA1"/>
<path d="M27.999 3.86426V5.0239C29.3607 5.15957 30.4272 6.31207 30.4272 7.71021V21.0832H1.15492V7.71164C1.15492 6.33778 2.18437 5.20384 3.51039 5.03532V3.86997C1.54702 4.04277 0 5.6994 0 7.71164V21.0846V22.2414V23.9152C0 26.0417 1.7281 27.7726 3.85116 27.7726H12.6086V28.9065L8.95278 31.1601H22.8575L19.5025 28.9194V27.7726H27.7324C29.8554 27.7726 31.5835 26.0417 31.5835 23.9152V7.71164C31.5835 5.67513 29.998 4.00279 27.999 3.86426ZM13.0335 30.0019L13.7635 29.5506V27.7769H18.3461V29.5377L19.0405 30.0019H13.0321H13.0335ZM30.4272 23.9138C30.4272 25.4033 29.2181 26.6144 27.731 26.6144H3.85116C2.36402 26.6144 1.15492 25.4033 1.15492 23.9138V22.24H30.4272V23.9138Z" fill="#67BEA1"/>
</svg>
