<svg width="34" height="27" viewBox="0 0 34 27" fill="none" xmlns="http://www.w3.org/2000/svg">
<path d="M5.18088 0V6.22079C4.86614 6.11896 4.54214 6.0449 4.19962 6.0449C2.42225 6.0449 0.968884 7.51679 0.968884 9.32193C0.968884 10.4235 1.51505 11.3955 2.33894 11.9972C2.13528 12.0898 1.93163 12.2009 1.7002 12.3398C0.737455 12.9322 0.135742 13.9227 0.135742 14.9225V19.1252C0.135742 19.2456 0.182028 19.3659 0.274599 19.4492L1.1818 20.3564L1.15403 21.4673C1.15403 21.5876 1.20031 21.7172 1.28363 21.8005C1.36694 21.8931 1.48728 21.9394 1.61688 21.9394H6.99528C7.25447 21.9394 7.45813 21.7357 7.45813 21.4765V16.9405C7.45813 16.3759 7.50442 16.0796 7.5507 15.9223C7.97653 15.9685 8.80042 15.9871 9.73538 15.7186H33.6928V0H5.18088ZM1.8946 9.33119C1.8946 8.03519 2.92214 6.97988 4.19036 6.97988C4.54214 6.97988 4.87539 7.07245 5.17162 7.2113C5.54191 7.39645 5.8659 7.6649 6.09733 8.01667C6.34728 8.38696 6.48613 8.84056 6.48613 9.33119C6.48613 9.82181 6.33802 10.2662 6.09733 10.6457C5.8659 10.9975 5.54191 11.2659 5.17162 11.4511C4.87539 11.5992 4.54214 11.6825 4.19036 11.6825C2.92214 11.6825 1.8946 10.6272 1.8946 9.33119ZM6.52316 16.9405V21.0137H2.089V20.6341C2.19082 20.5508 2.24637 20.4305 2.24637 20.3009V15.4224C2.24637 15.1724 2.04271 14.9595 1.79277 14.9595C1.55208 14.9873 1.32991 15.1539 1.32065 15.4131L1.21883 19.0789L1.07071 18.9308V14.9225C1.07071 14.256 1.51505 13.5524 2.19082 13.1359C2.9314 12.6823 3.32019 12.6082 4.19962 12.6082C4.53288 12.6082 4.85688 12.6545 5.18088 12.7286C5.49562 12.7934 5.80111 12.8859 6.10659 13.0155C6.31025 13.1081 6.50465 13.2099 6.7083 13.3303C8.03207 13.9505 10.837 14.4689 12.3922 12.2935L12.7995 12.4508C12.133 13.2284 11.0129 14.2282 10.0038 14.654C9.86499 14.7096 9.72613 14.7559 9.58727 14.8021C8.43013 15.1632 7.4211 14.978 7.32853 14.9688C6.93973 14.9688 6.74533 15.3113 6.6435 15.7279C6.53242 16.1722 6.53242 16.6906 6.53242 16.9498L6.52316 16.9405ZM32.7486 14.7929H11.5868C12.6051 14.0708 13.503 13.1174 13.9289 12.4879C14.0122 12.3675 14.0307 12.2194 13.9844 12.0898C13.9381 11.951 13.8363 11.8491 13.7067 11.7936L12.3644 11.2937C12.1515 11.2104 11.9201 11.2937 11.7997 11.4974C10.6333 13.4691 8.21722 13.0063 7.14339 12.5156C6.81939 12.312 6.46762 12.1639 6.10659 12.0343V11.9602C6.9027 11.3585 7.4211 10.4143 7.4211 9.33119C7.4211 8.2481 6.89345 7.30387 6.10659 6.70216V0.925713H32.7486V14.7929Z" fill="#67BEA1"/>
<path d="M29.0642 22.3277C28.7217 22.1148 28.3514 21.9574 27.9626 21.8278C28.7958 21.2353 29.3419 20.2541 29.3419 19.1432C29.3419 17.3381 27.8978 15.8662 26.1112 15.8662C24.3246 15.8662 22.8805 17.3381 22.8805 19.1432C22.8805 20.2541 23.4266 21.2353 24.2598 21.8278C23.8802 21.9574 23.5099 22.1148 23.1674 22.3277C22.6027 22.6702 22.1121 23.1238 21.7048 23.6422C21.6493 23.6237 21.5937 23.6052 21.5382 23.5867C22.3713 22.9942 22.9175 22.0129 22.9175 20.9021C22.9175 19.0969 21.4734 17.6251 19.6867 17.6251C18.4093 17.6251 17.3169 18.3841 16.7893 19.4765C16.7985 19.3654 16.8263 19.2636 16.8263 19.1525C16.8263 17.3474 15.3822 15.8755 13.5956 15.8755C11.8089 15.8755 10.3648 17.3474 10.3648 19.1525C10.3648 20.2633 10.911 21.2446 11.7441 21.8371C11.3646 21.9667 10.9943 22.124 10.6425 22.3369C9.75385 22.8739 9.04105 23.6515 8.56894 24.5772C8.44859 24.8086 8.54117 25.0863 8.77259 25.1974C9.00402 25.3177 9.28174 25.2252 9.39282 24.9937C9.79088 24.2161 10.3833 23.5774 11.1239 23.1238C12.605 22.2166 14.5676 22.2166 16.0487 23.1238C16.419 23.346 16.743 23.6144 17.0392 23.9292C16.9374 23.9847 16.8356 24.0217 16.7337 24.0865C15.845 24.6235 15.1322 25.4011 14.6601 26.3268C14.5398 26.5582 14.6324 26.8359 14.8638 26.947C15.0952 27.0673 15.3729 26.9748 15.484 26.7433C15.8821 25.975 16.4745 25.327 17.2151 24.8734C17.3354 24.7993 17.465 24.7438 17.5946 24.679C17.8816 24.5401 18.1686 24.4291 18.4741 24.3457C19.3535 24.1236 20.2977 24.1513 21.1586 24.4291C21.4549 24.5216 21.7418 24.6512 22.0103 24.7993C22.0473 24.8179 22.0936 24.8364 22.1306 24.8641C22.8712 25.3177 23.4729 25.9657 23.8617 26.7341C23.945 26.8915 24.1024 26.984 24.2783 26.984C24.3523 26.984 24.4171 26.9655 24.4912 26.9377C24.7226 26.8174 24.8059 26.5397 24.6949 26.3175C24.2227 25.3918 23.5007 24.6142 22.6213 24.0773C22.6027 24.068 22.575 24.0588 22.5565 24.0403C22.8712 23.6792 23.2322 23.3645 23.6395 23.1145C25.1207 22.2073 27.0832 22.2073 28.5643 23.1145C29.3049 23.5681 29.9066 24.2069 30.2954 24.9845C30.3787 25.1419 30.5361 25.2344 30.712 25.2344C30.786 25.2344 30.8508 25.2159 30.9249 25.1881C31.1563 25.0678 31.2396 24.7901 31.1286 24.5679C30.6565 23.6422 29.9344 22.8646 29.055 22.3277H29.0642ZM19.696 18.5508C20.9642 18.5508 22.001 19.6061 22.001 20.9021C22.001 22.1981 20.9642 23.2534 19.696 23.2534C18.4278 23.2534 17.4002 22.1981 17.4002 20.9021C17.4002 19.6061 18.4278 18.5508 19.696 18.5508ZM11.309 19.1525C11.309 17.8565 12.3366 16.8012 13.6048 16.8012C14.873 16.8012 15.9098 17.8565 15.9098 19.1525C15.9098 20.4485 14.873 21.5038 13.6048 21.5038C12.3366 21.5038 11.309 20.4485 11.309 19.1525ZM16.5486 22.3369C16.2061 22.124 15.8358 21.9667 15.447 21.8371C15.8913 21.5131 16.2524 21.078 16.493 20.5781C16.4838 20.6892 16.456 20.791 16.456 20.9021C16.456 21.5316 16.6412 22.124 16.9466 22.6239C16.817 22.5221 16.6782 22.4203 16.5393 22.3369H16.5486ZM23.8154 19.1525C23.8154 17.8565 24.8522 16.8012 26.1205 16.8012C27.3887 16.8012 28.4162 17.8565 28.4162 19.1525C28.4162 20.4485 27.3887 21.5038 26.1205 21.5038C24.8522 21.5038 23.8154 20.4485 23.8154 19.1525Z" fill="#67BEA1"/>
<path d="M16.0675 4.95382L12.9458 11.1553L13.7727 11.5715L16.8944 5.37005L16.0675 4.95382Z" fill="#67BEA1"/>
</svg>
